<?xml version="1.0" encoding="utf-8"?>
<!-- Generator: Adobe Illustrator 22.1.0, SVG Export Plug-In . SVG Version: 6.00 Build 0)  -->
<svg version="1.1" id="Layer_1" xmlns="http://www.w3.org/2000/svg" xmlns:xlink="http://www.w3.org/1999/xlink" x="0px" y="0px"
	 viewBox="0 0 612 792" style="enable-background:new 0 0 612 792;" xml:space="preserve">
<style type="text/css">
	.st0{fill:#4D4D4D;}
</style>
<path class="st0" d="M401,330.7H212c-3.7,0-6.6,3-6.6,6.6v116.4c0,3.7,3,6.6,6.6,6.6h189c3.7,0,6.6-3,6.6-6.6V337.3
	C407.7,333.7,404.7,330.7,401,330.7z M280,447.3c0,2-1.6,3.6-3.6,3.6h-52.8v-18.8h52.8c2,0,3.6,1.6,3.6,3.6V447.3z M309.2,417.9
	c0,2-1.6,3.6-3.6,3.6h-82v-18.8h82c2,0,3.6,1.6,3.6,3.6V417.9z M336.4,388.4c0,2-1.6,3.6-3.6,3.6H223.6v-18.8h109.2
	c2,0,3.6,1.6,3.6,3.6V388.4z M367.3,359c0,2-1.6,3.6-3.6,3.6H223.6v-18.8h140.1c2,0,3.6,1.6,3.6,3.6V359z"/>
</svg>
