<?xml version="1.0" encoding="utf-8"?>
<!-- Generator: Adobe Illustrator 22.1.0, SVG Export Plug-In . SVG Version: 6.00 Build 0)  -->
<svg version="1.1" id="Layer_1" xmlns="http://www.w3.org/2000/svg" xmlns:xlink="http://www.w3.org/1999/xlink" x="0px" y="0px"
	 viewBox="0 0 612 792" style="enable-background:new 0 0 612 792;" xml:space="preserve">
<style type="text/css">
	.st0{fill:#4D4D4D;}
</style>
<g>
	<path class="st0" d="M131.7,7.6v24.3H2V7.6C2,4,5,1,8.7,1H125C128.7,1,131.7,4,131.7,7.6z"/>
	<path class="st0" d="M2,196.7c0,3.7,3,6.6,6.6,6.6H125c3.7,0,6.6-3,6.6-6.6V59.2H2V196.7z M88.6,81.1h14.2v14.2H88.6V81.1z
		 M69.7,102.2h14.2v14.2H69.7V102.2z M50.9,62.2H65v14.2H50.9V62.2z M30.9,81.1h14.2v14.2H30.9V81.1z M14.9,102.2h14.2v14.2H14.9
		V102.2z M14.9,119.8h14.2V134H14.9V119.8z"/>
	<rect x="107.4" y="39.2" class="st0" width="14.2" height="14.2"/>
	<rect x="88.6" y="39.2" class="st0" width="14.2" height="14.2"/>
	<rect x="69.7" y="39.2" class="st0" width="14.2" height="14.2"/>
	<rect x="50.9" y="39.2" class="st0" width="14.2" height="14.2"/>
</g>
</svg>
