<svg width="120" height="32" viewBox="0 0 120 32" fill="none" xmlns="http://www.w3.org/2000/svg">
<g clip-path="url(#clip0_2610_1701)">
<path d="M0 1H20.7407C25.8545 1 30 5.14551 30 10.2593V31H0V1Z" fill="#0FB194"/>
<path d="M0 31.3V10H6.64151C8.53908 10 10.2341 10.4242 11.7264 11.2727C13.2287 12.1115 14.3998 13.3111 15.2399 14.8715C16.08 16.4222 16.5 18.1874 16.5 20.1672V21.1474C16.5 23.1272 16.0849 24.8876 15.2547 26.4285C14.4344 27.9694 13.2731 29.1641 11.7709 30.0126C10.2686 30.8611 8.57368 31.2902 6.68598 31.3H0ZM4.44744 13.5549V27.7744H6.59703C8.33648 27.7744 9.66577 27.2136 10.5849 26.092C11.504 24.9705 11.9735 23.3661 11.9933 21.2791V20.1526C11.9933 17.9875 11.5386 16.349 10.6294 15.2372C9.72013 14.1157 8.39084 13.5549 6.64151 13.5549H4.44744Z" fill="white"/>
<path d="M20.1746 31C17.8479 31 15.9514 30.2843 14.485 28.8529C13.0284 27.4216 12.3 25.5147 12.3 23.1324V22.7206C12.3 21.1225 12.608 19.6961 13.2239 18.4412C13.8398 17.1765 14.7098 16.2059 15.8341 15.5294C16.9681 14.8431 18.2585 14.5 19.7053 14.5C21.8756 14.5 23.5815 15.1863 24.8231 16.5588C26.0744 17.9314 26.7 19.8775 26.7 22.3971V24.1324H16.5966C16.7334 25.1716 17.144 26.0049 17.8284 26.6324C18.5225 27.2598 19.3974 27.5735 20.4532 27.5735C22.0858 27.5735 23.3616 26.9804 24.2805 25.7941L26.3628 28.1324C25.7273 29.0343 24.8671 29.7402 23.7819 30.25C22.6968 30.75 21.4943 31 20.1746 31ZM19.6907 17.9412C18.8499 17.9412 18.1656 18.2255 17.6377 18.7941C17.1196 19.3627 16.7872 20.1765 16.6406 21.2353H22.5355V20.8971C22.5159 19.9559 22.2618 19.2304 21.773 18.7206C21.2842 18.201 20.5901 17.9412 19.6907 17.9412Z" fill="white"/>
<ellipse cx="22.0499" cy="8.65005" rx="2.85" ry="2.85" fill="white"/>
</g>
<path d="M39 18.3418V0.955303H44.4783C46.0435 0.955303 47.4416 1.3016 48.6726 1.9942C49.9117 2.67883 50.8777 3.65801 51.5707 4.93175C52.2636 6.19753 52.6101 7.63844 52.6101 9.2545V10.0546C52.6101 11.6706 52.2677 13.1076 51.5829 14.3654C50.9062 15.6232 49.9484 16.5984 48.7092 17.291C47.4701 17.9836 46.072 18.3339 44.5149 18.3418H39ZM42.6685 3.85704V15.464H44.4416C45.8764 15.464 46.9728 15.0062 47.731 14.0907C48.4891 13.1752 48.8764 11.8657 48.8927 10.162V9.24256C48.8927 7.47525 48.5177 6.13782 47.7677 5.23028C47.0177 4.31479 45.9212 3.85704 44.4783 3.85704H42.6685Z" fill="#0FB194"/>
<path d="M61.1454 18.5806C59.2052 18.5806 57.6236 17.9995 56.4008 16.8372C55.1861 15.6749 54.5788 14.1265 54.5788 12.1921V11.8577C54.5788 10.5601 54.8356 9.40177 55.3492 8.38278C55.8628 7.35583 56.5883 6.56771 57.5258 6.01841C58.4715 5.46115 59.5476 5.18252 60.7541 5.18252C62.5639 5.18252 63.9864 5.73978 65.0217 6.8543C66.0652 7.96882 66.587 9.54905 66.587 11.595V13.0041H58.1617C58.2758 13.8479 58.6182 14.5246 59.1889 15.0341C59.7677 15.5436 60.4973 15.7983 61.3777 15.7983C62.7391 15.7983 63.803 15.3167 64.5693 14.3534L66.3057 16.2521C65.7758 16.9845 65.0584 17.5577 64.1535 17.9716C63.2486 18.3776 62.2459 18.5806 61.1454 18.5806ZM60.7418 7.97678C60.0408 7.97678 59.4701 8.20765 59.0299 8.66938C58.5978 9.13111 58.3207 9.79186 58.1984 10.6516H63.1141V10.377C63.0978 9.61274 62.8859 9.02363 62.4783 8.60967C62.0707 8.18774 61.4918 7.97678 60.7418 7.97678Z" fill="#0FB194"/>
<path d="M79.5489 11.2368H72.5054V18.3418H68.837V0.955303H80.4293V3.85704H72.5054V8.34696H79.5489V11.2368Z" fill="#0FB194"/>
<path d="M89.5761 18.3418C89.413 18.0313 89.2948 17.6452 89.2215 17.1835C88.3655 18.1149 87.2527 18.5806 85.8832 18.5806C84.587 18.5806 83.5109 18.2144 82.6549 17.482C81.8071 16.7496 81.3832 15.8262 81.3832 14.7117C81.3832 13.3424 81.9008 12.2916 82.9361 11.5592C83.9796 10.8268 85.4837 10.4566 87.4484 10.4486H89.0747V9.70827C89.0747 9.1112 88.9158 8.63355 88.5978 8.27531C88.288 7.91707 87.7948 7.73796 87.1182 7.73796C86.5231 7.73796 86.0543 7.87727 85.712 8.1559C85.3777 8.43453 85.2106 8.81665 85.2106 9.30226H81.6766C81.6766 8.55394 81.913 7.86135 82.3859 7.22448C82.8587 6.58761 83.5272 6.09006 84.3913 5.73182C85.2554 5.36562 86.2255 5.18252 87.3016 5.18252C88.9321 5.18252 90.2242 5.58454 91.178 6.38859C92.1399 7.18468 92.6209 8.30716 92.6209 9.75603V15.3565C92.6291 16.5825 92.8044 17.5099 93.1467 18.1388V18.3418H89.5761ZM86.6535 15.9416C87.1753 15.9416 87.6562 15.8302 88.0965 15.6073C88.5367 15.3764 88.8628 15.0699 89.0747 14.6878V12.4667H87.7541C85.9851 12.4667 85.0435 13.0638 84.9294 14.2579L84.9171 14.4609C84.9171 14.8908 85.072 15.245 85.3818 15.5237C85.6916 15.8023 86.1155 15.9416 86.6535 15.9416Z" fill="#0FB194"/>
<path d="M100.141 13.1593L98.8696 14.4012V18.3418H95.3356V0H98.8696V10.162L99.5544 9.30226L102.942 5.42135H107.185L102.404 10.8069L107.601 18.3418H103.541L100.141 13.1593Z" fill="#0FB194"/>
<path d="M114.558 18.5806C112.618 18.5806 111.037 17.9995 109.814 16.8372C108.599 15.6749 107.992 14.1265 107.992 12.1921V11.8577C107.992 10.5601 108.249 9.40177 108.762 8.38278C109.276 7.35583 110.001 6.56771 110.939 6.01841C111.885 5.46115 112.961 5.18252 114.167 5.18252C115.977 5.18252 117.399 5.73978 118.435 6.8543C119.478 7.96882 120 9.54905 120 11.595V13.0041H111.575C111.689 13.8479 112.031 14.5246 112.602 15.0341C113.181 15.5436 113.91 15.7983 114.791 15.7983C116.152 15.7983 117.216 15.3167 117.982 14.3534L119.719 16.2521C119.189 16.9845 118.471 17.5577 117.567 17.9716C116.662 18.3776 115.659 18.5806 114.558 18.5806ZM114.155 7.97678C113.454 7.97678 112.883 8.20765 112.443 8.66938C112.011 9.13111 111.734 9.79186 111.611 10.6516H116.527V10.377C116.511 9.61274 116.299 9.02363 115.891 8.60967C115.484 8.18774 114.905 7.97678 114.155 7.97678Z" fill="#0FB194"/>
<path d="M40.5076 29.4255V31.9034H39V24.8708H41.8543C42.4037 24.8708 42.8861 24.9674 43.3016 25.1606C43.7203 25.3538 44.0419 25.6291 44.2664 25.9865C44.4909 26.3407 44.6031 26.7448 44.6031 27.1989C44.6031 27.888 44.3569 28.4322 43.8644 28.8314C43.3753 29.2275 42.6969 29.4255 41.8292 29.4255H40.5076ZM40.5076 28.2518H41.8543C42.253 28.2518 42.5562 28.1617 42.7639 27.9813C42.9749 27.801 43.0805 27.5434 43.0805 27.2085C43.0805 26.864 42.9749 26.5855 42.7639 26.3729C42.5528 26.1604 42.2613 26.0509 41.8895 26.0445H40.5076V28.2518Z" fill="#0FB194"/>
<path d="M54.5268 29.3289H53.3258V31.9034H51.8182V24.8708H54.5369C55.4012 24.8708 56.0679 25.0559 56.5369 25.4262C57.0059 25.7965 57.2404 26.3198 57.2404 26.996C57.2404 27.4758 57.1315 27.8767 56.9138 28.1987C56.6994 28.5175 56.3727 28.7719 55.9339 28.9619L57.5168 31.8358V31.9034H55.8987L54.5268 29.3289ZM53.3258 28.1552H54.5419C54.9205 28.1552 55.2136 28.0635 55.4213 27.8799C55.629 27.6932 55.7329 27.4372 55.7329 27.1119C55.7329 26.7803 55.634 26.5194 55.4364 26.3295C55.2421 26.1395 54.9422 26.0445 54.5369 26.0445H53.3258V28.1552Z" fill="#0FB194"/>
<path d="M70.5763 28.5465C70.5763 29.2388 70.449 29.8458 70.1944 30.3674C69.9397 30.8891 69.5746 31.2916 69.0989 31.5749C68.6265 31.8583 68.0838 32 67.4707 32C66.8643 32 66.3233 31.8599 65.8476 31.5798C65.3719 31.2996 65.0033 30.9003 64.742 30.3819C64.4807 29.8602 64.3484 29.2613 64.345 28.5851V28.2373C64.345 27.545 64.474 26.9364 64.732 26.4116C64.9933 25.8835 65.3601 25.4794 65.8325 25.1992C66.3082 24.9159 66.8509 24.7742 67.4607 24.7742C68.0704 24.7742 68.6114 24.9159 69.0838 25.1992C69.5595 25.4794 69.9263 25.8835 70.1843 26.4116C70.4456 26.9364 70.5763 27.5434 70.5763 28.2325V28.5465ZM69.0486 28.2277C69.0486 27.4903 68.9113 26.93 68.6365 26.5468C68.3618 26.1636 67.9699 25.972 67.4607 25.972C66.9548 25.972 66.5645 26.162 66.2898 26.542C66.0151 26.9187 65.876 27.4726 65.8727 28.2035V28.5465C65.8727 29.2645 66.01 29.8216 66.2848 30.2177C66.5595 30.6137 66.9548 30.8118 67.4707 30.8118C67.9766 30.8118 68.3652 30.6218 68.6365 30.2418C68.9079 29.8586 69.0453 29.3016 69.0486 28.5706V28.2277Z" fill="#0FB194"/>
<path d="M80.7965 24.8708H82.3041V29.7395C82.3041 30.1871 82.2002 30.5832 81.9925 30.9277C81.7881 31.269 81.4983 31.5331 81.1231 31.7198C80.7479 31.9066 80.3241 32 79.8518 32C79.0779 32 78.4749 31.8116 78.0427 31.4349C77.6105 31.0549 77.3944 30.5188 77.3944 29.8264H78.9121C78.9121 30.171 78.9874 30.4254 79.1382 30.5896C79.2889 30.7538 79.5268 30.8359 79.8518 30.8359C80.1399 30.8359 80.3694 30.7409 80.5402 30.551C80.7111 30.361 80.7965 30.0905 80.7965 29.7395V24.8708Z" fill="#0FB194"/>
<path d="M94.1725 28.8556H91.278V30.7393H94.6751V31.9034H89.7705V24.8708H94.665V26.0445H91.278V27.7205H94.1725V28.8556Z" fill="#0FB194"/>
<path d="M107.478 29.5608C107.421 30.3175 107.13 30.9132 106.604 31.3479C106.081 31.7826 105.391 32 104.533 32C103.595 32 102.857 31.6973 102.317 31.0919C101.781 30.4833 101.513 29.6493 101.513 28.5899V28.1601C101.513 27.4838 101.637 26.8881 101.885 26.3729C102.133 25.8577 102.487 25.4633 102.946 25.1896C103.408 24.9126 103.944 24.7742 104.554 24.7742C105.398 24.7742 106.078 24.9915 106.594 25.4262C107.11 25.8609 107.408 26.4711 107.488 27.2568H105.981C105.944 26.8028 105.812 26.4744 105.584 26.2715C105.359 26.0654 105.016 25.9624 104.554 25.9624C104.051 25.9624 103.674 26.1363 103.423 26.484C103.175 26.8286 103.048 27.3647 103.041 28.0924V28.6237C103.041 29.3837 103.16 29.9391 103.398 30.2901C103.639 30.6411 104.018 30.8166 104.533 30.8166C104.999 30.8166 105.346 30.7152 105.574 30.5123C105.805 30.3062 105.937 29.9891 105.971 29.5608H107.478Z" fill="#0FB194"/>
<path d="M120 26.0445H117.759V31.9034H116.251V26.0445H114.04V24.8708H120V26.0445Z" fill="#0FB194"/>
<defs>
<clipPath id="clip0_2610_1701">
<rect width="30" height="30" fill="white" transform="translate(0 1)"/>
</clipPath>
</defs>
</svg>
