<svg width="81" height="81" viewBox="0 0 81 81" fill="none" xmlns="http://www.w3.org/2000/svg">
<g clip-path="url(#clip0_778_13398)">
<path d="M0 0H56C69.8071 0 81 11.1929 81 25V81H0V0Z" fill="#0FB194"/>
<path d="M0 81.81V24.3H17.9321C23.0555 24.3 27.6319 25.4455 31.6613 27.7364C35.7174 30.001 38.8795 33.2399 41.1477 37.4531C43.4159 41.6399 44.55 46.4061 44.55 51.7516V54.398C44.55 59.7435 43.4292 64.4965 41.1877 68.657C38.9729 72.8175 35.8375 76.0432 31.7814 78.3342C27.7253 80.6251 23.1489 81.7837 18.0522 81.81H0ZM12.0081 33.8982V72.2909H17.812C22.5085 72.2909 26.0976 70.7768 28.5792 67.7485C31.0609 64.7203 32.3284 60.3886 32.3818 54.7535V51.7121C32.3818 45.8663 31.1543 41.4425 28.6993 38.4406C26.2443 35.4123 22.6553 33.8982 17.9321 33.8982H12.0081Z" fill="white"/>
<path d="M54.4712 81C48.1892 81 43.0685 79.0676 39.1093 75.2029C35.1764 71.3382 33.21 66.1897 33.21 59.7573V58.6455C33.21 54.3308 34.0414 50.4794 35.7043 47.0911C37.3672 43.6764 39.7164 41.0558 42.7518 39.2294C45.8136 37.3764 49.2978 36.45 53.2043 36.45C59.064 36.45 63.6699 38.3029 67.0221 42.0088C70.4007 45.7147 72.09 50.9691 72.09 57.772V62.4573H44.8106C45.1801 65.2632 46.2887 67.5132 48.1364 69.2073C50.0104 70.9014 52.3728 71.7485 55.2235 71.7485C59.6315 71.7485 63.076 70.147 65.5572 66.9441L71.1793 73.2573C69.4636 75.6926 67.1409 77.5985 64.211 78.9749C61.2812 80.325 58.0346 81 54.4712 81ZM53.1647 45.7411C50.8947 45.7411 49.047 46.5088 47.6217 48.0441C46.2227 49.5794 45.3253 51.7764 44.9294 54.6352H60.8456V53.722C60.7929 51.1808 60.1066 49.222 58.7868 47.8455C57.4671 46.4426 55.593 45.7411 53.1647 45.7411Z" fill="white"/>
<ellipse cx="59.535" cy="20.655" rx="7.695" ry="7.695" fill="white"/>
</g>
<defs>
<clipPath id="clip0_778_13398">
<rect width="81" height="81" fill="white"/>
</clipPath>
</defs>
</svg>
