<svg width="64" height="64" viewBox="0 0 64 64" fill="none" xmlns="http://www.w3.org/2000/svg">
<path d="M40.9023 37.8728L41.1936 57.2079C41.1936 58.2638 40.6474 59.2834 39.7007 59.7932C38.754 60.3029 37.6252 60.2665 36.7149 59.6839L20.5841 49.0151L26.9563 46.9395L36.7149 54.3677L35.8046 42.4972L40.9023 37.9092V37.8728Z" fill="#2ECC71"/>
<path d="M39.2274 23.0166L57.6886 28.7333C58.7081 29.061 59.4728 29.8985 59.6913 30.9545C59.8733 32.0105 59.4728 33.1028 58.6353 33.7583L43.5241 45.8108V39.1109L53.574 32.1197L41.9948 29.3159L39.2274 23.053V23.0166Z" fill="#9B59B6"/>
<path d="M24.5531 20.0307L35.6954 4.22768C36.3144 3.35378 37.3704 2.88042 38.4263 3.02607C39.4823 3.17172 40.3926 3.86356 40.7567 4.88311L47.5295 22.9802L41.1573 20.941L37.6252 9.17979L31.3623 19.3389L24.5167 20.0307H24.5531Z" fill="#F39C12"/>
<path d="M17.1978 33.0664L5.58224 17.5911C4.92682 16.7172 4.81758 15.5884 5.29094 14.6052C5.76431 13.6221 6.71103 13.0031 7.767 12.9667L27.0657 12.0928L23.1331 17.5182L10.8621 17.2634L18.5815 26.3665L17.1614 33.0664H17.1978Z" fill="#3498DB"/>
<path d="M27.284 44.0995L9.00494 50.326C7.98539 50.6901 6.8566 50.4352 6.09194 49.707C5.32728 48.9787 4.99956 47.8499 5.29086 46.8304L10.425 28.1872L14.3576 33.5762L10.3158 45.1554L21.3488 40.6403L27.284 44.0995Z" fill="#D35400"/>
</svg>
