<?xml version="1.0" encoding="UTF-8"?>
<svg id="Layer_1" data-name="Layer 1" xmlns="http://www.w3.org/2000/svg" viewBox="0 0 485 421.5">
  <defs>
    <style>
      .cls-1 {
        fill: #f05a31;
      }

      .cls-2 {
        fill: none;
        stroke: #f05a31;
        stroke-miterlimit: 10;
        stroke-width: 22px;
      }

      .cls-3 {
        stroke: #000;
        stroke-linecap: round;
        stroke-linejoin: round;
        stroke-width: 10px;
      }
    </style>
  </defs>
  <g>
    <path d="M141.61,134.26c3.21,0,5.77,.96,8.66,1.28,3.21,2.89,5.77,5.45,6.09,9.62,.32,9.3,1.28,18.92,1.28,26.61,.96,31.74,1.92,63.17,3.53,93.31,0,1.6,.32,3.85,1.28,4.17,.64,.32,.32-1.6,.96-4.17,6.73-34.95,15.39-81.45,25.33-120.56,1.92-7.05,3.21-13.79,5.77-20.52,1.6,0,6.73-1.28,9.3-1.28,4.17,0,6.73,3.85,5.77,8.02-8.98,36.87-17.31,75.67-25.01,112.87-4.17,18.28-5.77,33.03-9.3,52.59-.96,4.17-2.56,8.34-2.56,12.5-.32,5.45-3.85,8.66-8.66,8.66-1.28,0-2.56-.32-4.17-.96-3.85-2.25-6.41-1.6-9.94-5.13-1.28-1.6-1.6-4.17-1.6-5.77,0-3.85-.32-6.41-.32-9.3-3.53-22.77-5.13-45.53-6.09-68.3-1.28-27.58,0-56.75-4.49-84.65-1.28-2.57,0-5.45-.32-8.34,1.6-.64,3.21-.64,4.49-.64Z"/>
    <path d="M243.58,207.04c.96-17.31,.96-52.59,2.24-68.94,.96-7.7-2.24-16.67,8.34-18.28,3.21-.32,11.54,4.49,11.86,8.02,.32,1.92-.64,3.85-.96,5.45-5.13,37.52-4.49,60.92-4.81,93.31-.32,19.24-.64,39.12-1.28,58.36-.32,8.66,.64,33.67-8.66,33.67-7.7,0-15.71-8.34-10.9-8.34,1.92-16.99,2.89-67.02,4.17-103.25Z"/>
    <path d="M317.32,304.52c17.32-.64,23.41-29.18,23.09-42.97-.96-33.35-33.67-41.36-35.27-83.37-.32-20.84,26.61-58.68,48.42-59.32,6.73,0,14.43,5.45,14.75,12.5,0,3.53-2.89,6.09-6.41,6.09-.96,0-2.24-.32-3.53-.96-19.88,.64-37.84,27.58-37.2,45.85,.64,25.65,33.67,36.55,35.27,80.16,.32,20.84-14.11,57.08-37.52,58.04-7.7,.32-15.07-5.45-16.67-12.83,1.6-3.21,3.85-6.73,6.73-7.05,2.25,3.53,5.77,3.85,8.34,3.85Z"/>
  </g>
  <g>
    <path d="M400.55,217.67c.61-11.02,.61-33.47,1.43-43.87,.61-4.9-1.43-10.61,5.31-11.63,2.04-.2,7.35,2.86,7.55,5.1,.2,1.22-.41,2.45-.61,3.47-3.27,23.87-2.86,38.77-3.06,59.38-.2,12.24-.41,24.89-.82,37.14-.2,5.51,.41,21.43-5.51,21.43-4.9,0-10-5.3-6.94-5.3,1.22-10.82,1.84-42.65,2.65-65.71Z"/>
    <path d="M446.87,175.22c-4.08,.2-7.35-2.86-7.55-7.14,0-3.06,.61-5.92,4.08-5.92,1.22,0,2.86,.61,4.08,.61,3.06,.2,5.92,.41,8.98,.41l6.12-.41c2.04,0,4.08-.2,6.33-.2,4.29,0,8.57,.2,12.45,.82,2.65,.2,3.06,1.63,3.88,3.47,.2,2.04-1.02,3.88-2.65,4.9l-14.28,.41c-1.43,6.94-2.45,13.26-3.26,20-3.67,27.34-6.53,55.3-5.71,82.85,0,1.84,.2,3.88,1.02,5.3,.2,1.84,.41,3.67,.41,5.31,0,3.06-2.65,4.29-5.31,4.29-6.33,0-6.33-6.73-6.33-11.83-1.02-31.02,2.65-62.24,6.12-93.05,.2-4.08,.82-7.75,.61-11.63-3.67,.61-5.1,1.84-8.98,1.84Z"/>
  </g>
  <g>
    <g>
      <path d="M16.28,164.08c3.44,0,5.67,1.82,7.29,4.66,4.25,3.44,14.79,7.7,15.2,25.73,.41,16.01-8.71,27.76-15.4,35.46,1.01,1.01,5.07,11.95,5.47,12.97,5.27,12.16,12.36,24.72,13.78,27.35,.81,1.82-1.22,2.63-3.04,2.63h-1.21c-8.31-1.22-18.44-26.54-21.68-33.43,0,7.29-.61,11.14-.81,16.61-.2,2.84-1.01,15.2-.81,24.52,.2,5.88-.2,10.33-2.63,10.33-5.07,0-7.5-1.22-7.7-6.69-.2-8.11,.2-16.21,.61-24.11,.61-16.62,1.22-33.03,2.03-49.44,.41-6.08,2.43-24.52,2.03-30.39-.2-6.08-3.04-6.69-3.04-8.1,3.04-3.44,5.07-7.9,9.93-8.11Zm12.36,30.8c.2-7.9-4.25-13.37-7.9-13.98-.61,8.71-2.43,30.19-3.24,38.9,4.86-3.45,10.74-13.78,11.14-24.92Z"/>
      <path d="M74.83,169.14c.81-2.03,1.82-3.24,4.25-3.45,2.23-.2,5.67-.61,9.32-.61,6.08,0,12.56,1.22,12.97,7.09,.2,2.43-1.42,3.44-3.65,3.44l-17.43,1.01c.81,.81,2.43,2.23,2.43,3.65,0,1.62-.81,3.04-1.22,4.86-1.82,9.52-2.23,24.52-3.24,33.03l17.22,.61c2.43,0,4.05,.61,4.05,2.84,0,1.62-1.42,3.85-3.04,4.46-1.22,0-2.84,.81-4.05,1.01-3.85,.41-9.93,.61-13.78,1.62-2.43,.61-1.82,3.44-2.23,6.28-1.82,13.78-2.23,26.34-2.03,40.52,4.86-1.42,10.33-4.46,14.99-4.46,3.44,0,8.1,1.22,8.1,5.27,0,2.43-1.62,3.24-4.05,3.44-8.51,1.22-15.4,6.89-25.73,7.09-3.85,0-4.66-4.66-4.66-7.5,0-12.76,.41-25.73,1.42-38.29,1.42-19.65,3.65-39.71,5.47-59.37,.61-5.27,.2-5.27,5.27-8.11l-.41-4.46Z"/>
    </g>
    <path class="cls-3" d="M17.78,228.56s11.03,25.08,19.4,40.33c6.3,11.46,12.49,21.44,14.86,21.23"/>
  </g>
  <path class="cls-2" d="M58.01,145.82c.05-.14,.1-.28,.15-.42"/>
  <path class="cls-2" d="M99.38,344.97c-10.05-10.88-18.9-22.9-26.32-35.84"/>
  <path class="cls-2" d="M141.28,379.42c-11.93-7.33-23.02-15.88-33.09-25.49"/>
  <path class="cls-2" d="M180.5,397.9c-6.9-2.36-13.62-5.09-20.15-8.17"/>
  <path class="cls-2" d="M237.65,408.38c-14.71-.5-29.02-2.61-42.75-6.16"/>
  <path class="cls-2" d="M359.62,371.5c-31,22.28-68.72,35.79-109.54,36.93"/>
  <path class="cls-2" d="M403.57,328.08c-7.71,10.46-16.43,20.13-26.02,28.87"/>
  <g>
    <path class="cls-2" d="M385.28,72.48c7.37,7.49,14.16,15.58,20.27,24.17"/>
    <polygon class="cls-1" points="371.39 105.01 428.18 138.27 428.59 72.45 371.39 105.01"/>
  </g>
  <path class="cls-2" d="M341.05,38.67c11.48,6.45,22.25,14.01,32.17,22.53"/>
  <path class="cls-2" d="M292.51,19.38c6.11,1.53,12.11,3.34,17.99,5.42"/>
  <path class="cls-2" d="M244.05,13.5c.15,0,.3,0,.45,0,12.07,0,23.89,1.08,35.36,3.16"/>
  <path class="cls-2" d="M181.45,23.78c15.33-5.16,31.51-8.49,48.27-9.73"/>
  <path class="cls-2" d="M154.9,34.95c4.95-2.52,10.02-4.84,15.2-6.95"/>
  <path class="cls-2" d="M114.96,61.91c4.3-3.74,8.76-7.29,13.37-10.65"/>
  <path class="cls-2" d="M74.66,110.14c7.58-12.74,16.56-24.56,26.72-35.24"/>
  <path class="cls-2" d="M58.16,145.4c2.26-6.42,4.84-12.68,7.72-18.78"/>
</svg>