<svg width="481" height="421" viewBox="0 0 481 421" fill="none" xmlns="http://www.w3.org/2000/svg">
<path d="M136.923 131.76C140.133 131.76 142.693 132.72 145.583 133.04C148.793 135.93 151.353 138.49 151.673 142.66C151.993 151.96 152.953 161.58 152.953 169.27C153.913 201.01 154.873 232.44 156.483 262.58C156.483 264.18 156.803 266.43 157.763 266.75C158.403 267.07 158.083 265.15 158.723 262.58C165.453 227.63 174.113 181.13 184.053 142.02C185.973 134.97 187.263 128.23 189.823 121.5C191.423 121.5 196.553 120.22 199.123 120.22C203.293 120.22 205.853 124.07 204.893 128.24C195.913 165.11 187.583 203.91 179.883 241.11C175.713 259.39 174.113 274.14 170.583 293.7C169.623 297.87 168.023 302.04 168.023 306.2C167.703 311.65 164.173 314.86 159.363 314.86C158.083 314.86 156.803 314.54 155.193 313.9C151.343 311.65 148.783 312.3 145.253 308.77C143.973 307.17 143.653 304.6 143.653 303C143.653 299.15 143.333 296.59 143.333 293.7C139.803 270.93 138.203 248.17 137.243 225.4C135.963 197.82 137.243 168.65 132.753 140.75C131.473 138.18 132.753 135.3 132.433 132.41C134.033 131.77 135.643 131.77 136.923 131.77V131.76Z" fill="black"/>
<path d="M238.893 204.54C239.853 187.23 239.853 151.95 241.133 135.6C242.093 127.9 238.893 118.93 249.473 117.32C252.683 117 261.013 121.81 261.333 125.34C261.653 127.26 260.693 129.19 260.373 130.79C255.243 168.31 255.883 191.71 255.563 224.1C255.243 243.34 254.923 263.22 254.283 282.46C253.963 291.12 254.923 316.13 245.623 316.13C237.923 316.13 229.913 307.79 234.723 307.79C236.643 290.8 237.613 240.77 238.893 204.54Z" fill="black"/>
<path d="M312.633 302.02C329.953 301.38 336.043 272.84 335.723 259.05C334.763 225.7 302.053 217.69 300.453 175.68C300.133 154.84 327.063 117 348.873 116.36C355.603 116.36 363.303 121.81 363.623 128.86C363.623 132.39 360.733 134.95 357.213 134.95C356.253 134.95 354.973 134.63 353.683 133.99C333.803 134.63 315.843 161.57 316.483 179.84C317.123 205.49 350.153 216.39 351.753 260C352.073 280.84 337.643 317.08 314.233 318.04C306.533 318.36 299.163 312.59 297.563 305.21C299.163 302 301.413 298.48 304.293 298.16C306.543 301.69 310.063 302.01 312.633 302.01V302.02Z" fill="black"/>
<path d="M395.863 215.17C396.473 204.15 396.473 181.7 397.293 171.3C397.903 166.4 395.863 160.69 402.603 159.67C404.643 159.47 409.953 162.53 410.153 164.77C410.353 165.99 409.743 167.22 409.543 168.24C406.273 192.11 406.683 207.01 406.483 227.62C406.283 239.86 406.073 252.51 405.663 264.76C405.463 270.27 406.073 286.19 400.153 286.19C395.253 286.19 390.153 280.89 393.213 280.89C394.433 270.07 395.053 238.24 395.863 215.18V215.17Z" fill="black"/>
<path d="M442.183 172.72C438.103 172.92 434.833 169.86 434.633 165.58C434.633 162.52 435.243 159.66 438.713 159.66C439.933 159.66 441.573 160.27 442.793 160.27C445.853 160.47 448.713 160.68 451.773 160.68L457.893 160.27C459.933 160.27 461.973 160.07 464.223 160.07C468.513 160.07 472.793 160.27 476.673 160.89C479.323 161.09 479.733 162.52 480.553 164.36C480.753 166.4 479.533 168.24 477.903 169.26L463.623 169.67C462.193 176.61 461.173 182.93 460.363 189.67C456.693 217.01 453.833 244.97 454.653 272.52C454.653 274.36 454.853 276.4 455.673 277.82C455.873 279.66 456.083 281.49 456.083 283.13C456.083 286.19 453.433 287.42 450.773 287.42C444.443 287.42 444.443 280.69 444.443 275.59C443.423 244.57 447.093 213.35 450.563 182.54C450.763 178.46 451.383 174.79 451.173 170.91C447.503 171.52 446.073 172.75 442.193 172.75L442.183 172.72Z" fill="black"/>
<path d="M11.5931 161.58C15.0331 161.58 17.2631 163.4 18.8831 166.24C23.1331 169.68 33.6731 173.94 34.0831 191.97C34.4931 207.98 25.3731 219.73 18.6831 227.43C19.6931 228.44 23.7531 239.38 24.1531 240.4C29.4231 252.56 36.5131 265.12 37.9331 267.75C38.7431 269.57 36.7131 270.38 34.8931 270.38H33.6831C25.3731 269.16 15.2431 243.84 12.0031 236.95C12.0031 244.24 11.3931 248.09 11.1931 253.56C10.9931 256.4 10.1831 268.76 10.3831 278.08C10.5831 283.96 10.1831 288.41 7.75314 288.41C2.68314 288.41 0.253136 287.19 0.0531356 281.72C-0.146864 273.61 0.253136 265.51 0.663136 257.61C1.27314 240.99 1.88314 224.58 2.69314 208.17C3.10314 202.09 5.12314 183.65 4.72314 177.78C4.52314 171.7 1.68314 171.09 1.68314 169.68C4.72314 166.24 6.75314 161.78 11.6131 161.57L11.5931 161.58ZM23.9531 192.38C24.1531 184.48 19.7031 179.01 16.0531 178.4C15.4431 187.11 13.6231 208.59 12.8131 217.3C17.6731 213.85 23.5531 203.52 23.9531 192.38Z" fill="black"/>
<path d="M70.1432 166.64C70.9532 164.61 71.9632 163.4 74.3932 163.19C76.6232 162.99 80.0632 162.58 83.7132 162.58C89.7932 162.58 96.2732 163.8 96.6832 169.67C96.8832 172.1 95.2632 173.11 93.0332 173.11L75.6032 174.12C76.4132 174.93 78.0332 176.35 78.0332 177.77C78.0332 179.39 77.2232 180.81 76.8132 182.63C74.9932 192.15 74.5832 207.15 73.5732 215.66L90.7932 216.27C93.2232 216.27 94.8432 216.88 94.8432 219.11C94.8432 220.73 93.4232 222.96 91.8032 223.57C90.5832 223.57 88.9632 224.38 87.7532 224.58C83.9032 224.99 77.8232 225.19 73.9732 226.2C71.5432 226.81 72.1532 229.64 71.7432 232.48C69.9232 246.26 69.5132 258.82 69.7132 273C74.5732 271.58 80.0432 268.54 84.7032 268.54C88.1432 268.54 92.8032 269.76 92.8032 273.81C92.8032 276.24 91.1832 277.05 88.7532 277.25C80.2432 278.47 73.3532 284.14 63.0232 284.34C59.1732 284.34 58.3632 279.68 58.3632 276.84C58.3632 264.08 58.7732 251.11 59.7832 238.55C61.2032 218.9 63.4332 198.84 65.2532 179.18C65.8632 173.91 65.4532 173.91 70.5232 171.07L70.1132 166.61L70.1432 166.64Z" fill="black"/>
<path d="M13.0931 226.06C13.0931 226.06 24.1231 251.14 32.4931 266.39C38.7931 277.85 44.9831 287.83 47.3531 287.62" fill="black"/>
<path d="M13.0931 226.06C13.0931 226.06 24.1231 251.14 32.4931 266.39C38.7931 277.85 44.9831 287.83 47.3531 287.62" stroke="black" stroke-width="10" stroke-linecap="round" stroke-linejoin="round"/>
<path d="M53.3231 143.32C53.3731 143.18 53.4231 143.04 53.4731 142.9" stroke="#F05A31" stroke-width="22" stroke-miterlimit="10"/>
<path d="M94.6931 342.47C84.6431 331.59 75.7931 319.57 68.3731 306.63" stroke="#F05A31" stroke-width="22" stroke-miterlimit="10"/>
<path d="M136.593 376.92C124.663 369.59 113.573 361.04 103.503 351.43" stroke="#F05A31" stroke-width="22" stroke-miterlimit="10"/>
<path d="M175.813 395.4C168.913 393.04 162.193 390.31 155.663 387.23" stroke="#F05A31" stroke-width="22" stroke-miterlimit="10"/>
<path d="M232.963 405.88C218.253 405.38 203.943 403.27 190.213 399.72" stroke="#F05A31" stroke-width="22" stroke-miterlimit="10"/>
<path d="M354.933 369C323.933 391.28 286.213 404.79 245.393 405.93" stroke="#F05A31" stroke-width="22" stroke-miterlimit="10"/>
<path d="M398.883 325.58C391.173 336.04 382.453 345.71 372.863 354.45" stroke="#F05A31" stroke-width="22" stroke-miterlimit="10"/>
<path d="M380.593 69.98C387.973 77.47 394.753 85.56 400.863 94.15" stroke="#F05A31" stroke-width="22" stroke-miterlimit="10"/>
<path d="M366.703 102.51L423.493 135.77L423.903 69.95L366.703 102.51Z" fill="#F05A31"/>
<path d="M336.363 36.17C347.843 42.62 358.613 50.18 368.533 58.7" stroke="#F05A31" stroke-width="22" stroke-miterlimit="10"/>
<path d="M287.823 16.88C293.933 18.41 299.933 20.22 305.813 22.3" stroke="#F05A31" stroke-width="22" stroke-miterlimit="10"/>
<path d="M239.363 11C239.513 11 239.663 11 239.813 11C251.883 11 263.703 12.08 275.173 14.16" stroke="#F05A31" stroke-width="22" stroke-miterlimit="10"/>
<path d="M176.763 21.28C192.093 16.12 208.273 12.79 225.033 11.55" stroke="#F05A31" stroke-width="22" stroke-miterlimit="10"/>
<path d="M150.213 32.45C155.163 29.93 160.233 27.61 165.413 25.5" stroke="#F05A31" stroke-width="22" stroke-miterlimit="10"/>
<path d="M110.273 59.41C114.573 55.67 119.033 52.12 123.643 48.76" stroke="#F05A31" stroke-width="22" stroke-miterlimit="10"/>
<path d="M69.9731 107.64C77.5531 94.9 86.5331 83.08 96.6931 72.4" stroke="#F05A31" stroke-width="22" stroke-miterlimit="10"/>
<path d="M53.4731 142.9C55.7331 136.48 58.3131 130.22 61.1931 124.12" stroke="#F05A31" stroke-width="22" stroke-miterlimit="10"/>
</svg>
