<svg id="Layer_1" data-name="Layer 1" xmlns="http://www.w3.org/2000/svg" xmlns:xlink="http://www.w3.org/1999/xlink" viewBox="0 0 1495.09 1098.41"><defs><style>.cls-1,.cls-5,.cls-9{fill:none;}.cls-2{clip-path:url(#clip-path);}.cls-3,.cls-6{fill:#fff;}.cls-4{fill:#595a5a;}.cls-5{stroke:#010101;}.cls-5,.cls-9{stroke-linejoin:round;stroke-width:2px;}.cls-6{font-size:48px;}.cls-13,.cls-6{font-family:AvenirNext-Bold, Avenir Next;font-weight:700;}.cls-7{clip-path:url(#clip-path-3);}.cls-8{fill:#f3f3f3;}.cls-9{stroke:#818181;}.cls-10{clip-path:url(#clip-path-5);}.cls-11{clip-path:url(#clip-path-7);}.cls-12{fill:#c0bfbf;}.cls-13{font-size:54px;fill:#515151;}.cls-14{clip-path:url(#clip-path-10);}.cls-15{clip-path:url(#clip-path-12);}.cls-16{clip-path:url(#clip-path-14);}.cls-17{clip-path:url(#clip-path-17);}.cls-18{clip-path:url(#clip-path-19);}.cls-19{clip-path:url(#clip-path-21);}.cls-20{clip-path:url(#clip-path-24);}.cls-21{clip-path:url(#clip-path-26);}.cls-22{clip-path:url(#clip-path-28);}.cls-23{clip-path:url(#clip-path-31);}.cls-24{clip-path:url(#clip-path-33);}.cls-25{clip-path:url(#clip-path-36);}.cls-26{clip-path:url(#clip-path-38);}.cls-27{clip-path:url(#clip-path-41);}.cls-28{clip-path:url(#clip-path-43);}</style><clipPath id="clip-path"><rect class="cls-1" x="-84.16" y="-260.68" width="2880" height="1620"/></clipPath><clipPath id="clip-path-3"><rect class="cls-1" x="1237.06" y="954.17" width="106.46" height="106.46"/></clipPath><clipPath id="clip-path-5"><rect class="cls-1" x="1237.06" y="770.48" width="106.46" height="106.46"/></clipPath><clipPath id="clip-path-7"><rect class="cls-1" x="1237.06" y="586.79" width="106.46" height="106.46"/></clipPath><clipPath id="clip-path-10"><rect class="cls-1" x="581.38" y="954.17" width="106.46" height="106.46"/></clipPath><clipPath id="clip-path-12"><rect class="cls-1" x="581.38" y="770.48" width="106.46" height="106.46"/></clipPath><clipPath id="clip-path-14"><rect class="cls-1" x="581.38" y="586.79" width="106.46" height="106.46"/></clipPath><clipPath id="clip-path-17"><rect class="cls-1" x="974.78" y="954.17" width="106.46" height="106.46"/></clipPath><clipPath id="clip-path-19"><rect class="cls-1" x="974.78" y="770.48" width="106.46" height="106.46"/></clipPath><clipPath id="clip-path-21"><rect class="cls-1" x="974.78" y="586.79" width="106.46" height="106.46"/></clipPath><clipPath id="clip-path-24"><rect class="cls-1" x="843.65" y="954.17" width="106.46" height="106.46"/></clipPath><clipPath id="clip-path-26"><rect class="cls-1" x="843.65" y="770.48" width="106.46" height="106.46"/></clipPath><clipPath id="clip-path-28"><rect class="cls-1" x="843.65" y="586.79" width="106.46" height="106.46"/></clipPath><clipPath id="clip-path-31"><rect class="cls-1" x="712.51" y="770.48" width="106.46" height="290.15"/></clipPath><clipPath id="clip-path-33"><rect class="cls-1" x="712.51" y="586.79" width="106.46" height="106.46"/></clipPath><clipPath id="clip-path-36"><rect class="cls-1" x="450.24" y="586.79" width="106.46" height="473.85"/></clipPath><clipPath id="clip-path-38"><rect class="cls-1" x="450.24" y="770.48" width="106.46" height="106.46"/></clipPath><clipPath id="clip-path-41"><rect class="cls-1" x="1105.92" y="954.17" width="106.46" height="106.46"/></clipPath><clipPath id="clip-path-43"><rect class="cls-1" x="1105.92" y="586.79" width="106.46" height="290.15"/></clipPath></defs><g class="cls-2"><g class="cls-2"><rect class="cls-3" x="-84.16" y="-260.68" width="2880" height="1620"/><rect class="cls-4" x="17.47" y="936.14" width="396.98" height="141.23"/><rect class="cls-5" x="17.47" y="936.14" width="396.98" height="141.23"/><text class="cls-6" transform="translate(324.36 1022.19)">A</text><rect class="cls-4" x="95.01" y="752.45" width="319.44" height="141.23"/><rect class="cls-5" x="95.01" y="752.45" width="319.44" height="141.23"/><text class="cls-6" transform="translate(325.89 838.49)">B</text><rect class="cls-4" x="53.47" y="568.75" width="360.98" height="141.23"/><rect class="cls-5" x="53.47" y="568.75" width="360.98" height="141.23"/><text class="cls-6" transform="translate(325.15 654.8)">C</text></g><g class="cls-7"><g class="cls-2"><path class="cls-8" d="M1254.06,971.18a51.23,51.23,0,1,1,0,72.45A51.22,51.22,0,0,1,1254.06,971.18Z"/><circle class="cls-9" cx="1290.29" cy="1007.4" r="51.23"/></g></g><g class="cls-10"><g class="cls-2"><path class="cls-8" d="M1254.06,787.48a51.23,51.23,0,1,1,0,72.45A51.24,51.24,0,0,1,1254.06,787.48Z"/><circle class="cls-9" cx="1290.29" cy="823.71" r="51.23"/></g></g><g class="cls-11"><g class="cls-2"><path class="cls-8" d="M1254.06,603.79a51.23,51.23,0,1,1,0,72.45A51.22,51.22,0,0,1,1254.06,603.79Z"/><circle class="cls-9" cx="1290.29" cy="640.02" r="51.23"/></g></g><g class="cls-2"><rect class="cls-12" x="1239.06" y="406.79" width="102.46" height="100.76"/><rect class="cls-9" x="1239.06" y="406.79" width="102.46" height="100.76"/><text class="cls-13" transform="translate(1268.29 387.11)">5</text></g><g class="cls-14"><g class="cls-2"><circle class="cls-4" cx="634.61" cy="1007.4" r="51.23"/><circle class="cls-9" cx="634.61" cy="1007.4" r="51.23"/></g></g><g class="cls-15"><g class="cls-2"><circle class="cls-8" cx="634.61" cy="823.71" r="51.23"/><circle class="cls-9" cx="634.61" cy="823.71" r="51.23"/></g></g><g class="cls-16"><g class="cls-2"><circle class="cls-8" cx="634.61" cy="640.02" r="51.23"/><circle class="cls-9" cx="634.61" cy="640.02" r="51.23"/></g></g><g class="cls-2"><rect class="cls-12" x="583.38" y="145.23" width="102.46" height="362.32"/><rect class="cls-9" x="583.38" y="145.23" width="102.46" height="362.32"/><text class="cls-13" transform="translate(597.06 96.08)">17</text></g><g class="cls-17"><g class="cls-2"><circle class="cls-8" cx="1028.01" cy="1007.4" r="51.23"/><circle class="cls-9" cx="1028.02" cy="1007.4" r="51.23"/></g></g><g class="cls-18"><g class="cls-2"><circle class="cls-4" cx="1028.01" cy="823.71" r="51.23"/><circle class="cls-9" cx="1028.02" cy="823.71" r="51.23"/></g></g><g class="cls-19"><g class="cls-2"><circle class="cls-8" cx="1028.01" cy="640.02" r="51.23"/><circle class="cls-9" cx="1028.02" cy="640.02" r="51.23"/></g></g><g class="cls-2"><rect class="cls-12" x="976.78" y="357.76" width="102.46" height="149.8"/><rect class="cls-9" x="976.78" y="357.76" width="102.46" height="149.8"/><text class="cls-13" transform="translate(1006.02 324.39)">7</text></g><g class="cls-20"><g class="cls-2"><circle class="cls-8" cx="896.88" cy="1007.4" r="51.23"/><circle class="cls-9" cx="896.88" cy="1007.4" r="51.23"/></g></g><g class="cls-21"><g class="cls-2"><circle class="cls-8" cx="896.88" cy="823.71" r="51.23"/><circle class="cls-9" cx="896.88" cy="823.71" r="51.23"/></g></g><g class="cls-22"><g class="cls-2"><circle class="cls-4" cx="896.88" cy="640.02" r="51.23"/><circle class="cls-9" cx="896.88" cy="640.02" r="51.23"/></g></g><g class="cls-2"><rect class="cls-12" x="845.65" y="308.69" width="102.46" height="198.87"/><rect class="cls-9" x="845.65" y="308.69" width="102.46" height="198.87"/><text class="cls-13" transform="translate(855.36 269.32)">10</text></g><g class="cls-23"><g class="cls-2"><path class="cls-4" d="M714.51,1007.4a51.23,51.23,0,0,1,31.29-47.2l7.94-2.47V873.38l-7.94-2.47a51.23,51.23,0,1,1,39.88,0l-7.94,2.47v84.35l7.94,2.47a51.23,51.23,0,1,1-71.17,47.2Z"/><path class="cls-9" d="M714.51,1007.4a51.23,51.23,0,0,1,31.29-47.2l7.94-2.47V873.38l-7.94-2.47a51.23,51.23,0,1,1,39.88,0l-7.94,2.47v84.35l7.94,2.47a51.23,51.23,0,1,1-71.17,47.2Z"/></g></g><g class="cls-24"><g class="cls-2"><circle class="cls-8" cx="765.74" cy="640.02" r="51.23"/><circle class="cls-9" cx="765.74" cy="640.02" r="51.23"/></g></g><g class="cls-2"><rect class="cls-12" x="714.51" y="234.92" width="102.46" height="272.63"/><rect class="cls-9" x="714.51" y="234.92" width="102.46" height="272.63"/><text class="cls-13" transform="translate(726.3 194.95)">14</text></g><g class="cls-25"><g class="cls-2"><path class="cls-4" d="M452.24,640a51.23,51.23,0,1,1,71.17,47.2l-5.35,1.66V958.53l5.35,1.67a51.23,51.23,0,1,1-39.88,0l7.94-2.47v-268l-7.94-2.47A51.24,51.24,0,0,1,452.24,640Z"/><path class="cls-9" d="M452.24,640a51.23,51.23,0,1,1,71.17,47.2l-5.35,1.66V958.53l5.35,1.67a51.23,51.23,0,1,1-39.88,0l7.94-2.47v-268l-7.94-2.47A51.24,51.24,0,0,1,452.24,640Z"/></g></g><g class="cls-26"><g class="cls-2"><circle class="cls-8" cx="503.47" cy="823.71" r="51.23"/><circle class="cls-9" cx="503.47" cy="823.71" r="51.23"/></g></g><g class="cls-2"><rect class="cls-12" x="452.24" y="98.11" width="102.46" height="409.44"/><rect class="cls-9" x="452.24" y="98.11" width="102.46" height="409.44"/><text class="cls-13" transform="translate(467.42 54.14)">20</text></g><g class="cls-27"><g class="cls-2"><circle class="cls-8" cx="1159.15" cy="1007.4" r="51.23"/><circle class="cls-9" cx="1159.15" cy="1007.4" r="51.23"/></g></g><g class="cls-28"><g class="cls-2"><path class="cls-4" d="M1107.92,640a51.23,51.23,0,1,1,71.17,47.2l-7.94,2.47V774l7.94,2.46a51.23,51.23,0,1,1-39.88,0l7.94-2.46V689.69l-7.94-2.47A51.24,51.24,0,0,1,1107.92,640Z"/><path class="cls-9" d="M1107.92,640a51.23,51.23,0,1,1,71.17,47.2l-7.94,2.47V774l7.94,2.46a51.23,51.23,0,1,1-39.88,0l7.94-2.46V689.69l-7.94-2.47A51.24,51.24,0,0,1,1107.92,640Z"/></g></g><g class="cls-2"><rect class="cls-12" x="1107.92" y="357.76" width="102.46" height="149.8"/><rect class="cls-9" x="1107.92" y="357.76" width="102.46" height="149.8"/><text class="cls-13" transform="translate(1137.15 324.39)">7</text><path class="cls-4" d="M1370.19,1007.4a51.23,51.23,0,0,1,31.29-47.2l6.65-2.07V873l-6.65-2.07a51.25,51.25,0,0,1,0-94.41l6.65-2.06V689.28l-6.65-2.06a51.23,51.23,0,1,1,39.88,0l-6.64,2.06v85.16l6.64,2.06a51.25,51.25,0,0,1,0,94.41l-6.64,2.07v85.15l6.64,2.07a51.23,51.23,0,1,1-71.17,47.2Z"/><path class="cls-9" d="M1370.19,1007.4a51.23,51.23,0,0,1,31.29-47.2l6.65-2.07V873l-6.65-2.07a51.25,51.25,0,0,1,0-94.41l6.65-2.06V689.28l-6.65-2.06a51.23,51.23,0,1,1,39.88,0l-6.64,2.06v85.16l6.64,2.06a51.25,51.25,0,0,1,0,94.41l-6.64,2.07v85.15l6.64,2.07a51.23,51.23,0,1,1-71.17,47.2Z"/><rect class="cls-12" x="1370.19" y="406.79" width="102.46" height="100.76"/><rect class="cls-9" x="1370.19" y="406.79" width="102.46" height="100.76"/><text class="cls-13" transform="translate(1399.42 387.11)">5</text></g></g></svg>