<svg id="Layer_1" data-name="Layer 1" xmlns="http://www.w3.org/2000/svg" xmlns:xlink="http://www.w3.org/1999/xlink" viewBox="0 0 1963.39 1476.82"><defs><style>.cls-1,.cls-15,.cls-33,.cls-6{fill:none;}.cls-2{clip-path:url(#clip-path);}.cls-3,.cls-8{fill:#fff;}.cls-4{clip-path:url(#clip-path-3);}.cls-5{fill:#595a5a;}.cls-6{stroke:#010101;}.cls-15,.cls-33,.cls-6{stroke-linejoin:round;}.cls-15,.cls-6{stroke-width:2px;}.cls-7{clip-path:url(#clip-path-4);}.cls-8{font-size:48px;}.cls-35,.cls-38,.cls-8{font-family:AvenirNext-Bold, Avenir Next;font-weight:700;}.cls-9{clip-path:url(#clip-path-5);}.cls-10{clip-path:url(#clip-path-6);}.cls-11{clip-path:url(#clip-path-7);}.cls-12{clip-path:url(#clip-path-8);}.cls-13{clip-path:url(#clip-path-9);}.cls-14{fill:#f3f3f3;}.cls-15,.cls-33{stroke:#818181;}.cls-16{clip-path:url(#clip-path-10);}.cls-17{clip-path:url(#clip-path-11);}.cls-18{clip-path:url(#clip-path-12);}.cls-19{clip-path:url(#clip-path-13);}.cls-20{clip-path:url(#clip-path-14);}.cls-21{clip-path:url(#clip-path-15);}.cls-22{clip-path:url(#clip-path-16);}.cls-23{clip-path:url(#clip-path-17);}.cls-24{clip-path:url(#clip-path-18);}.cls-25{clip-path:url(#clip-path-19);}.cls-26{clip-path:url(#clip-path-20);}.cls-27{clip-path:url(#clip-path-21);}.cls-28{clip-path:url(#clip-path-22);}.cls-29{clip-path:url(#clip-path-23);}.cls-30{clip-path:url(#clip-path-24);}.cls-31{clip-path:url(#clip-path-25);}.cls-32{clip-path:url(#clip-path-26);}.cls-33{stroke-width:6px;}.cls-34{fill:#c0bfbf;}.cls-35{font-size:66px;letter-spacing:-0.02em;}.cls-35,.cls-38{fill:#515151;}.cls-36{letter-spacing:0em;}.cls-37{letter-spacing:0em;}.cls-38{font-size:54px;}</style><clipPath id="clip-path"><rect class="cls-1" x="-264.84" y="-58.16" width="2880" height="1620"/></clipPath><clipPath id="clip-path-3"><rect class="cls-1" x="21.16" y="9.07" width="145.23" height="400.98"/></clipPath><clipPath id="clip-path-4"><rect class="cls-1" x="10.37" y="322.06" width="166.81" height="98.78"/></clipPath><clipPath id="clip-path-5"><rect class="cls-1" x="204.85" y="86.61" width="145.23" height="323.44"/></clipPath><clipPath id="clip-path-6"><rect class="cls-1" x="194.06" y="322.06" width="166.81" height="98.78"/></clipPath><clipPath id="clip-path-7"><rect class="cls-1" x="388.54" y="45.07" width="145.23" height="364.98"/></clipPath><clipPath id="clip-path-8"><rect class="cls-1" x="377.75" y="322.06" width="166.81" height="98.78"/></clipPath><clipPath id="clip-path-9"><rect class="cls-1" x="40.54" y="443.84" width="106.46" height="106.46"/></clipPath><clipPath id="clip-path-10"><rect class="cls-1" x="224.23" y="443.84" width="106.46" height="106.46"/></clipPath><clipPath id="clip-path-11"><rect class="cls-1" x="407.93" y="443.84" width="106.46" height="106.46"/></clipPath><clipPath id="clip-path-12"><rect class="cls-1" x="40.54" y="574.98" width="106.46" height="106.46"/></clipPath><clipPath id="clip-path-13"><rect class="cls-1" x="224.23" y="574.98" width="106.46" height="106.46"/></clipPath><clipPath id="clip-path-14"><rect class="cls-1" x="407.93" y="574.98" width="106.46" height="106.46"/></clipPath><clipPath id="clip-path-15"><rect class="cls-1" x="40.54" y="706.12" width="106.46" height="106.46"/></clipPath><clipPath id="clip-path-16"><rect class="cls-1" x="224.23" y="706.12" width="106.46" height="106.46"/></clipPath><clipPath id="clip-path-17"><rect class="cls-1" x="407.93" y="706.11" width="106.46" height="106.46"/></clipPath><clipPath id="clip-path-18"><rect class="cls-1" x="40.54" y="837.25" width="106.46" height="106.46"/></clipPath><clipPath id="clip-path-19"><rect class="cls-1" x="224.23" y="837.25" width="106.46" height="106.46"/></clipPath><clipPath id="clip-path-20"><rect class="cls-1" x="407.93" y="837.25" width="106.46" height="106.46"/></clipPath><clipPath id="clip-path-21"><rect class="cls-1" x="40.54" y="968.39" width="290.15" height="106.46"/></clipPath><clipPath id="clip-path-22"><rect class="cls-1" x="407.93" y="968.39" width="106.46" height="106.46"/></clipPath><clipPath id="clip-path-23"><rect class="cls-1" x="40.54" y="1099.52" width="473.85" height="106.46"/></clipPath><clipPath id="clip-path-24"><rect class="cls-1" x="224.23" y="1099.52" width="106.46" height="106.46"/></clipPath><clipPath id="clip-path-25"><rect class="cls-1" x="40.54" y="1230.66" width="106.46" height="106.46"/></clipPath><clipPath id="clip-path-26"><rect class="cls-1" x="224.23" y="1230.66" width="290.15" height="106.46"/></clipPath></defs><g class="cls-2"><g class="cls-2"><rect class="cls-3" x="-264.84" y="-58.16" width="2880" height="1620"/></g><g class="cls-4"><rect class="cls-5" x="23.16" y="11.07" width="141.23" height="396.98"/><rect class="cls-6" x="23.16" y="11.07" width="141.23" height="396.98"/></g><g class="cls-7"><text class="cls-8" transform="translate(76.28 386.89)">A</text></g><g class="cls-9"><rect class="cls-5" x="206.85" y="88.61" width="141.23" height="319.44"/><rect class="cls-6" x="206.85" y="88.61" width="141.23" height="319.44"/></g><g class="cls-10"><text class="cls-8" transform="translate(261.51 386.89)">B</text></g><g class="cls-11"><rect class="cls-5" x="390.54" y="47.07" width="141.23" height="360.98"/><rect class="cls-6" x="390.54" y="47.07" width="141.23" height="360.98"/></g><g class="cls-12"><text class="cls-8" transform="translate(444.45 386.89)">C</text></g><g class="cls-13"><path class="cls-14" d="M130,460.85a51.23,51.23,0,1,1-72.45,0A51.22,51.22,0,0,1,130,460.85Z"/><circle class="cls-15" cx="93.77" cy="497.07" r="51.23"/></g><g class="cls-16"><path class="cls-14" d="M313.69,460.85a51.23,51.23,0,1,1-72.45,0A51.22,51.22,0,0,1,313.69,460.85Z"/><circle class="cls-15" cx="277.47" cy="497.07" r="51.23"/></g><g class="cls-17"><path class="cls-14" d="M497.38,460.85a51.23,51.23,0,1,1-72.45,0A51.22,51.22,0,0,1,497.38,460.85Z"/><circle class="cls-15" cx="461.16" cy="497.07" r="51.23"/></g><g class="cls-18"><circle class="cls-5" cx="93.77" cy="628.21" r="51.23"/><circle class="cls-15" cx="93.77" cy="628.21" r="51.23"/></g><g class="cls-19"><circle class="cls-14" cx="277.47" cy="628.21" r="51.23"/><circle class="cls-15" cx="277.47" cy="628.21" r="51.23"/></g><g class="cls-20"><circle class="cls-14" cx="461.16" cy="628.21" r="51.23"/><circle class="cls-15" cx="461.16" cy="628.21" r="51.23"/></g><g class="cls-21"><circle class="cls-14" cx="93.77" cy="759.35" r="51.23"/><circle class="cls-15" cx="93.77" cy="759.35" r="51.23"/></g><g class="cls-22"><circle class="cls-5" cx="277.47" cy="759.35" r="51.23"/><circle class="cls-15" cx="277.47" cy="759.35" r="51.23"/></g><g class="cls-23"><circle class="cls-14" cx="461.16" cy="759.35" r="51.23"/><circle class="cls-15" cx="461.16" cy="759.35" r="51.23"/></g><g class="cls-24"><circle class="cls-14" cx="93.77" cy="890.48" r="51.23"/><circle class="cls-15" cx="93.77" cy="890.48" r="51.23"/></g><g class="cls-25"><circle class="cls-14" cx="277.47" cy="890.48" r="51.23"/><circle class="cls-15" cx="277.47" cy="890.48" r="51.23"/></g><g class="cls-26"><circle class="cls-5" cx="461.16" cy="890.48" r="51.23"/><circle class="cls-15" cx="461.16" cy="890.48" r="51.23"/></g><g class="cls-27"><path class="cls-5" d="M93.77,970.39A51.25,51.25,0,0,1,141,1001.68l2.46,7.94H227.8l2.46-7.94a51.23,51.23,0,1,1,0,39.88l-2.46-7.94H143.44l-2.46,7.94a51.24,51.24,0,1,1-47.21-71.17Z"/><path class="cls-15" d="M93.77,970.39A51.25,51.25,0,0,1,141,1001.68l2.46,7.94H227.8l2.46-7.94a51.23,51.23,0,1,1,0,39.88l-2.46-7.94H143.44l-2.46,7.94a51.24,51.24,0,1,1-47.21-71.17Z"/></g><g class="cls-28"><circle class="cls-14" cx="461.16" cy="1021.62" r="51.23"/><circle class="cls-15" cx="461.16" cy="1021.62" r="51.23"/></g><g class="cls-29"><path class="cls-5" d="M461.16,1101.52A51.23,51.23,0,1,1,414,1172.69l-1.66-5.35H142.64l-1.66,5.35a51.23,51.23,0,1,1,0-39.88l2.46,7.94H411.49l2.46-7.94A51.25,51.25,0,0,1,461.16,1101.52Z"/><path class="cls-15" d="M461.16,1101.52A51.23,51.23,0,1,1,414,1172.69l-1.66-5.35H142.64l-1.66,5.35a51.23,51.23,0,1,1,0-39.88l2.46,7.94H411.49l2.46-7.94A51.25,51.25,0,0,1,461.16,1101.52Z"/></g><g class="cls-30"><circle class="cls-14" cx="277.47" cy="1152.75" r="51.23"/><circle class="cls-15" cx="277.47" cy="1152.75" r="51.23"/></g><g class="cls-31"><circle class="cls-14" cx="93.77" cy="1283.89" r="51.23"/><circle class="cls-15" cx="93.77" cy="1283.89" r="51.23"/></g><g class="cls-32"><path class="cls-5" d="M461.16,1232.66A51.23,51.23,0,1,1,414,1303.83l-2.46-7.94H327.14l-2.47,7.94a51.23,51.23,0,1,1,0-39.88l2.47,7.94h84.35L414,1264A51.25,51.25,0,0,1,461.16,1232.66Z"/><path class="cls-15" d="M461.16,1232.66A51.23,51.23,0,1,1,414,1303.83l-2.46-7.94H327.14l-2.47,7.94a51.23,51.23,0,1,1,0-39.88l2.47,7.94h84.35L414,1264A51.25,51.25,0,0,1,461.16,1232.66Z"/></g><g class="cls-2"><path class="cls-5" d="M93.77,1363.79A51.27,51.27,0,0,1,141,1395.08l2.06,6.65H228.2l2.06-6.65a51.25,51.25,0,0,1,94.41,0l2.06,6.65h85.16l2.06-6.65a51.23,51.23,0,1,1,0,39.89l-2.06-6.65H326.73l-2.06,6.65a51.26,51.26,0,0,1-94.41,0l-2.06-6.65H143L141,1435a51.24,51.24,0,1,1-47.21-71.18Z"/><path class="cls-15" d="M93.77,1363.79A51.27,51.27,0,0,1,141,1395.08l2.06,6.65H228.2l2.06-6.65a51.25,51.25,0,0,1,94.41,0l2.06,6.65h85.16l2.06-6.65a51.23,51.23,0,1,1,0,39.89l-2.06-6.65H326.73l-2.06,6.65a51.26,51.26,0,0,1-94.41,0l-2.06-6.65H143L141,1435a51.24,51.24,0,1,1-47.21-71.18Z"/><path class="cls-3" d="M1718.89,747.24a215.12,215.12,0,0,1,84.07,17h0l-4.27,16.6a216.62,216.62,0,0,1-122.22,134.8h0l-4.22-16.41a216.25,216.25,0,0,0-68.89-102.44l-11.08-8.29,5.84-4.37A215,215,0,0,1,1718.89,747.24Z"/><path class="cls-33" d="M1718.89,747.24a215.12,215.12,0,0,1,84.07,17h0l-4.27,16.6a216.62,216.62,0,0,1-122.22,134.8h0l-4.22-16.41a216.25,216.25,0,0,0-68.89-102.44l-11.08-8.29,5.84-4.37A215,215,0,0,1,1718.89,747.24Z"/><path class="cls-3" d="M1447,747a215,215,0,0,1,120.76,36.89l5.55,4.14-10.79,8.07a216.25,216.25,0,0,0-68.89,102.44l-4.27,16.61-18.86-9.08a216.62,216.62,0,0,1-103.33-125.7L1363,764l19.81-7.25A216.05,216.05,0,0,1,1447,747Z"/><path class="cls-33" d="M1447,747a215,215,0,0,1,120.76,36.89l5.55,4.14-10.79,8.07a216.25,216.25,0,0,0-68.89,102.44l-4.27,16.61-18.86-9.08a216.62,216.62,0,0,1-103.33-125.7L1363,764l19.82-7.25A215.94,215.94,0,0,1,1447,747Z"/><path class="cls-3" d="M1497.7,937.32h0A216.93,216.93,0,0,0,1646,944.6l19.81-7.25,1.11,4.29a216.47,216.47,0,0,1-74.22,210.21l-10.78,8.06-11.09-8.29a216.36,216.36,0,0,1-74.21-210.2Z"/><path class="cls-33" d="M1497.7,937.32h0A216.93,216.93,0,0,0,1646,944.6l19.81-7.25,1.11,4.29a216.47,216.47,0,0,1-74.22,210.21l-10.78,8.06-11.09-8.29a216.36,216.36,0,0,1-74.21-210.2Z"/><path class="cls-3" d="M1581.8,480.77c119.29,0,216,96.71,216,216a216.76,216.76,0,0,1-4.39,43.53l-1.05,4.09h0a216.37,216.37,0,0,0-204.84,19.92l-5.84,4.37-5.55-4.15a216.55,216.55,0,0,0-185-27.17l-19.81,7.25-1.11-4.3a217.49,217.49,0,0,1-4.38-43.53C1365.8,577.48,1462.5,480.77,1581.8,480.77Z"/><path class="cls-33" d="M1581.8,480.77c119.29,0,216,96.71,216,216a216.76,216.76,0,0,1-4.39,43.53l-1.05,4.09h0a216.39,216.39,0,0,0-204.85,19.92l-5.84,4.37-5.55-4.15a216.55,216.55,0,0,0-185-27.17l-19.81,7.25-1.1-4.3a216.76,216.76,0,0,1-4.39-43.53C1365.8,577.48,1462.5,480.77,1581.8,480.77Z"/><path class="cls-3" d="M1809,788.7l18.86,9.09a215.94,215.94,0,0,1,113,189.93c0,119.29-96.7,216-216,216a215,215,0,0,1-120.76-36.89l-5.55-4.15,10.79-8.06a216.38,216.38,0,0,0,74.21-210.21l-1.1-4.29,0,0A216.59,216.59,0,0,0,1804.7,805.31Z"/><path class="cls-33" d="M1809,788.7l18.86,9.09a215.94,215.94,0,0,1,113,189.93c0,119.29-96.7,216-216,216a215,215,0,0,1-120.76-36.89l-5.55-4.15,10.79-8.06a216.38,216.38,0,0,0,74.21-210.21l-1.1-4.29,0,0A216.59,216.59,0,0,0,1804.7,805.31Z"/><path class="cls-3" d="M1354.67,786.14l4.22,16.4a216.59,216.59,0,0,0,103.33,125.7l18.86,9.08-1,4.1a216.35,216.35,0,0,0,74.22,210.2l11.08,8.29-5.84,4.37a215,215,0,0,1-120.77,36.89c-119.29,0-216-96.7-216-216a216.06,216.06,0,0,1,131.92-199Z"/><path class="cls-33" d="M1354.67,786.14l4.22,16.4a216.59,216.59,0,0,0,103.33,125.7l18.86,9.08-1,4.1a216.35,216.35,0,0,0,74.22,210.2l11.08,8.29-5.84,4.37a215,215,0,0,1-120.77,36.89c-119.29,0-216-96.7-216-216a216.06,216.06,0,0,1,131.92-199Z"/><path class="cls-3" d="M1581.64,796.36l11.09,8.29a216.23,216.23,0,0,1,68.89,102.45l4.22,16.4L1646,930.75a217,217,0,0,1-148.31-7.26h0l4.27-16.61a216.25,216.25,0,0,1,68.89-102.44Z"/><path class="cls-33" d="M1581.64,796.36l11.09,8.29a216.23,216.23,0,0,1,68.89,102.45l4.22,16.4L1646,930.75a217,217,0,0,1-148.31-7.26h0l4.27-16.61a216.25,216.25,0,0,1,68.89-102.44Z"/><rect class="cls-34" x="593.62" y="445.84" width="100.76" height="102.46"/><rect class="cls-15" x="593.62" y="445.84" width="100.76" height="102.46"/><rect class="cls-34" x="593.62" y="576.98" width="362.32" height="102.46"/><rect class="cls-15" x="593.62" y="576.98" width="362.32" height="102.46"/><rect class="cls-34" x="593.62" y="708.12" width="149.8" height="102.46"/><rect class="cls-15" x="593.62" y="708.11" width="149.8" height="102.46"/><rect class="cls-34" x="593.62" y="839.25" width="198.87" height="102.46"/><rect class="cls-15" x="593.62" y="839.25" width="198.87" height="102.46"/><rect class="cls-34" x="593.62" y="970.39" width="272.64" height="102.46"/><rect class="cls-15" x="593.62" y="970.39" width="272.64" height="102.46"/><rect class="cls-34" x="593.62" y="1101.52" width="409.44" height="102.46"/><rect class="cls-15" x="593.62" y="1101.52" width="409.44" height="102.46"/><rect class="cls-34" x="593.62" y="1232.66" width="149.8" height="102.46"/><rect class="cls-15" x="593.62" y="1232.66" width="149.8" height="102.46"/><rect class="cls-34" x="593.62" y="1363.79" width="100.76" height="102.46"/><rect class="cls-15" x="593.62" y="1363.79" width="100.76" height="102.46"/><text class="cls-35" transform="translate(616.92 397.48)">C<tspan class="cls-36" x="44.81" y="0">a</tspan><tspan x="82.17" y="0">r</tspan><tspan class="cls-37" x="107.18" y="0">dinality</tspan></text><text class="cls-38" transform="translate(714.36 520.25)">5</text><text class="cls-38" transform="translate(993.94 653.28)">17</text><text class="cls-38" transform="translate(777.08 782.52)">7</text><text class="cls-38" transform="translate(814.7 911.58)">10</text><text class="cls-38" transform="translate(895.08 1044.8)">14</text><text class="cls-38" transform="translate(1031.88 1179.33)">20</text><text class="cls-38" transform="translate(771.06 1307.07)">7</text><text class="cls-38" transform="translate(714.36 1438.2)">5</text><text class="cls-38" transform="translate(1837.12 538.35)">5</text><text class="cls-38" transform="translate(1537.04 639.69)">17</text><text class="cls-38" transform="translate(1351.26 1037.32)">7</text><text class="cls-38" transform="translate(1748.73 1046.53)">10</text><text class="cls-38" transform="translate(1421.39 832.37)">14</text><text class="cls-38" transform="translate(1659 828.29)">20</text><text class="cls-38" transform="translate(1558.3 1055.98)">7</text><text class="cls-38" transform="translate(1557.29 901.94)">5</text></g></g></svg>