<svg id="Layer_1" data-name="Layer 1" xmlns="http://www.w3.org/2000/svg" xmlns:xlink="http://www.w3.org/1999/xlink" viewBox="0 0 1118.46 1499.18"><defs><style>.cls-1,.cls-18,.cls-6{fill:none;}.cls-2{clip-path:url(#clip-path);}.cls-3,.cls-8{fill:#fff;}.cls-4{clip-path:url(#clip-path-3);}.cls-5{fill:#595a5a;}.cls-6{stroke:#010101;}.cls-18,.cls-6{stroke-linejoin:round;stroke-width:2px;}.cls-7{clip-path:url(#clip-path-4);}.cls-8{font-size:48px;}.cls-13,.cls-24,.cls-8{font-family:AvenirNext-Bold, Avenir Next;font-weight:700;}.cls-9{clip-path:url(#clip-path-5);}.cls-10{clip-path:url(#clip-path-6);}.cls-11{clip-path:url(#clip-path-7);}.cls-12{clip-path:url(#clip-path-8);}.cls-13{font-size:66px;letter-spacing:-0.02em;}.cls-13,.cls-24{fill:#515151;}.cls-14{letter-spacing:0em;}.cls-15{letter-spacing:0em;}.cls-16{clip-path:url(#clip-path-10);}.cls-17{fill:#f3f3f3;}.cls-18{stroke:#818181;}.cls-19{clip-path:url(#clip-path-11);}.cls-20{clip-path:url(#clip-path-12);}.cls-21{clip-path:url(#clip-path-13);}.cls-22{fill:#c0bfbf;}.cls-23{clip-path:url(#clip-path-14);}.cls-24{font-size:54px;}.cls-25{clip-path:url(#clip-path-15);}.cls-26{clip-path:url(#clip-path-16);}.cls-27{clip-path:url(#clip-path-17);}.cls-28{clip-path:url(#clip-path-18);}.cls-29{clip-path:url(#clip-path-19);}.cls-30{clip-path:url(#clip-path-20);}.cls-31{clip-path:url(#clip-path-21);}.cls-32{clip-path:url(#clip-path-22);}.cls-33{clip-path:url(#clip-path-23);}.cls-34{clip-path:url(#clip-path-24);}.cls-35{clip-path:url(#clip-path-25);}.cls-36{clip-path:url(#clip-path-26);}.cls-37{clip-path:url(#clip-path-27);}.cls-38{clip-path:url(#clip-path-28);}.cls-39{clip-path:url(#clip-path-29);}.cls-40{clip-path:url(#clip-path-30);}.cls-41{clip-path:url(#clip-path-31);}.cls-42{clip-path:url(#clip-path-32);}.cls-43{clip-path:url(#clip-path-33);}.cls-44{clip-path:url(#clip-path-34);}.cls-45{clip-path:url(#clip-path-35);}.cls-46{clip-path:url(#clip-path-36);}.cls-47{clip-path:url(#clip-path-37);}.cls-48{clip-path:url(#clip-path-38);}.cls-49{clip-path:url(#clip-path-39);}.cls-50{clip-path:url(#clip-path-40);}.cls-51{clip-path:url(#clip-path-41);}.cls-52{clip-path:url(#clip-path-42);}.cls-53{clip-path:url(#clip-path-43);}.cls-54{clip-path:url(#clip-path-44);}</style><clipPath id="clip-path"><rect class="cls-1" x="-265.5" y="-55.53" width="2880" height="1620"/></clipPath><clipPath id="clip-path-3"><rect class="cls-1" x="20.5" y="11.7" width="145.23" height="400.98"/></clipPath><clipPath id="clip-path-4"><rect class="cls-1" x="9.71" y="324.69" width="166.81" height="98.78"/></clipPath><clipPath id="clip-path-5"><rect class="cls-1" x="204.19" y="89.24" width="145.23" height="323.44"/></clipPath><clipPath id="clip-path-6"><rect class="cls-1" x="193.4" y="324.69" width="166.81" height="98.78"/></clipPath><clipPath id="clip-path-7"><rect class="cls-1" x="387.89" y="47.7" width="145.23" height="364.98"/></clipPath><clipPath id="clip-path-8"><rect class="cls-1" x="377.09" y="324.69" width="166.81" height="98.78"/></clipPath><clipPath id="clip-path-10"><rect class="cls-1" x="39.24" y="1233.29" width="106.46" height="106.46"/></clipPath><clipPath id="clip-path-11"><rect class="cls-1" x="222.93" y="1233.29" width="106.46" height="106.46"/></clipPath><clipPath id="clip-path-12"><rect class="cls-1" x="406.62" y="1233.29" width="106.46" height="106.46"/></clipPath><clipPath id="clip-path-13"><rect class="cls-1" x="590.31" y="1233.29" width="104.76" height="106.46"/></clipPath><clipPath id="clip-path-14"><rect class="cls-1" x="694.61" y="1237.02" width="72.77" height="110.88"/></clipPath><clipPath id="clip-path-15"><rect class="cls-1" x="39.24" y="577.61" width="106.46" height="106.46"/></clipPath><clipPath id="clip-path-16"><rect class="cls-1" x="222.93" y="577.61" width="106.46" height="106.46"/></clipPath><clipPath id="clip-path-17"><rect class="cls-1" x="406.62" y="577.61" width="106.46" height="106.46"/></clipPath><clipPath id="clip-path-18"><rect class="cls-1" x="590.31" y="577.61" width="366.32" height="106.46"/></clipPath><clipPath id="clip-path-19"><rect class="cls-1" x="974.2" y="583.23" width="107.65" height="110.88"/></clipPath><clipPath id="clip-path-20"><rect class="cls-1" x="39.24" y="971.02" width="106.46" height="106.46"/></clipPath><clipPath id="clip-path-21"><rect class="cls-1" x="222.93" y="971.02" width="106.46" height="106.46"/></clipPath><clipPath id="clip-path-22"><rect class="cls-1" x="406.62" y="971.02" width="106.46" height="106.46"/></clipPath><clipPath id="clip-path-23"><rect class="cls-1" x="590.31" y="971.02" width="153.8" height="106.46"/></clipPath><clipPath id="clip-path-24"><rect class="cls-1" x="757.34" y="974.75" width="72.77" height="110.88"/></clipPath><clipPath id="clip-path-25"><rect class="cls-1" x="39.24" y="839.88" width="106.46" height="106.46"/></clipPath><clipPath id="clip-path-26"><rect class="cls-1" x="222.93" y="839.88" width="106.46" height="106.46"/></clipPath><clipPath id="clip-path-27"><rect class="cls-1" x="406.62" y="839.88" width="106.46" height="106.46"/></clipPath><clipPath id="clip-path-28"><rect class="cls-1" x="590.31" y="839.88" width="202.87" height="106.46"/></clipPath><clipPath id="clip-path-29"><rect class="cls-1" x="794.96" y="841.53" width="107.65" height="110.88"/></clipPath><clipPath id="clip-path-30"><rect class="cls-1" x="39.24" y="708.75" width="290.15" height="106.46"/></clipPath><clipPath id="clip-path-31"><rect class="cls-1" x="406.62" y="708.75" width="106.46" height="106.46"/></clipPath><clipPath id="clip-path-32"><rect class="cls-1" x="590.31" y="708.75" width="276.64" height="106.46"/></clipPath><clipPath id="clip-path-33"><rect class="cls-1" x="875.33" y="712.48" width="107.65" height="110.88"/></clipPath><clipPath id="clip-path-34"><rect class="cls-1" x="39.24" y="446.47" width="473.85" height="106.46"/></clipPath><clipPath id="clip-path-35"><rect class="cls-1" x="222.93" y="446.47" width="106.46" height="106.46"/></clipPath><clipPath id="clip-path-36"><rect class="cls-1" x="590.31" y="446.47" width="413.44" height="106.46"/></clipPath><clipPath id="clip-path-37"><rect class="cls-1" x="1012.14" y="453.6" width="107.65" height="110.88"/></clipPath><clipPath id="clip-path-38"><rect class="cls-1" x="39.24" y="1102.15" width="106.46" height="106.46"/></clipPath><clipPath id="clip-path-39"><rect class="cls-1" x="222.93" y="1102.15" width="290.15" height="106.46"/></clipPath><clipPath id="clip-path-40"><rect class="cls-1" x="590.31" y="1102.15" width="153.8" height="106.46"/></clipPath><clipPath id="clip-path-41"><rect class="cls-1" x="751.31" y="1105.89" width="72.77" height="110.88"/></clipPath><clipPath id="clip-path-42"><rect class="cls-1" x="39.24" y="1364.42" width="473.85" height="106.46"/></clipPath><clipPath id="clip-path-43"><rect class="cls-1" x="590.31" y="1364.42" width="104.76" height="106.46"/></clipPath><clipPath id="clip-path-44"><rect class="cls-1" x="694.61" y="1368.16" width="72.77" height="110.88"/></clipPath></defs><g class="cls-2"><g class="cls-2"><rect class="cls-3" x="-265.5" y="-55.53" width="2880" height="1620"/></g><g class="cls-4"><rect class="cls-5" x="22.5" y="13.7" width="141.23" height="396.98"/><rect class="cls-6" x="22.5" y="13.7" width="141.23" height="396.98"/></g><g class="cls-7"><text class="cls-8" transform="translate(75.62 389.52)">A</text></g><g class="cls-9"><rect class="cls-5" x="206.19" y="91.24" width="141.23" height="319.44"/><rect class="cls-6" x="206.19" y="91.24" width="141.23" height="319.44"/></g><g class="cls-10"><text class="cls-8" transform="translate(260.85 389.52)">B</text></g><g class="cls-11"><rect class="cls-5" x="389.89" y="49.7" width="141.23" height="360.98"/><rect class="cls-6" x="389.89" y="49.7" width="141.23" height="360.98"/></g><g class="cls-12"><text class="cls-8" transform="translate(443.8 389.52)">C</text></g><g class="cls-2"><text class="cls-13" transform="translate(616.26 400.11)">C<tspan class="cls-14" x="44.81" y="0">a</tspan><tspan x="82.17" y="0">r</tspan><tspan class="cls-15" x="107.18" y="0">dinality</tspan></text></g><g class="cls-16"><circle class="cls-17" cx="92.47" cy="1286.52" r="51.23"/><circle class="cls-18" cx="92.47" cy="1286.52" r="51.23"/></g><g class="cls-19"><circle class="cls-17" cx="276.16" cy="1286.52" r="51.23"/><circle class="cls-18" cx="276.16" cy="1286.52" r="51.23"/></g><g class="cls-20"><circle class="cls-17" cx="459.85" cy="1286.52" r="51.23"/><circle class="cls-18" cx="459.85" cy="1286.52" r="51.23"/></g><g class="cls-21"><rect class="cls-22" x="592.31" y="1235.29" width="100.76" height="102.46"/><rect class="cls-18" x="592.31" y="1235.29" width="100.76" height="102.46"/></g><g class="cls-23"><text class="cls-24" transform="translate(713.06 1309.7)">5</text></g><g class="cls-25"><circle class="cls-5" cx="92.47" cy="630.84" r="51.23"/><circle class="cls-18" cx="92.47" cy="630.84" r="51.23"/></g><g class="cls-26"><circle class="cls-17" cx="276.16" cy="630.84" r="51.23"/><circle class="cls-18" cx="276.16" cy="630.84" r="51.23"/></g><g class="cls-27"><circle class="cls-17" cx="459.85" cy="630.84" r="51.23"/><circle class="cls-18" cx="459.85" cy="630.84" r="51.23"/></g><g class="cls-28"><rect class="cls-22" x="592.31" y="579.61" width="362.32" height="102.46"/><rect class="cls-18" x="592.31" y="579.61" width="362.32" height="102.46"/></g><g class="cls-29"><text class="cls-24" transform="translate(992.64 655.91)">17</text></g><g class="cls-30"><circle class="cls-17" cx="92.47" cy="1024.25" r="51.23"/><circle class="cls-18" cx="92.47" cy="1024.25" r="51.23"/></g><g class="cls-31"><circle class="cls-5" cx="276.16" cy="1024.25" r="51.23"/><circle class="cls-18" cx="276.16" cy="1024.25" r="51.23"/></g><g class="cls-32"><circle class="cls-17" cx="459.85" cy="1024.25" r="51.23"/><circle class="cls-18" cx="459.85" cy="1024.25" r="51.23"/></g><g class="cls-33"><rect class="cls-22" x="592.31" y="973.02" width="149.8" height="102.46"/><rect class="cls-18" x="592.31" y="973.02" width="149.8" height="102.46"/></g><g class="cls-34"><text class="cls-24" transform="translate(775.78 1047.43)">7</text></g><g class="cls-35"><circle class="cls-17" cx="92.47" cy="893.11" r="51.23"/><circle class="cls-18" cx="92.47" cy="893.11" r="51.23"/></g><g class="cls-36"><circle class="cls-17" cx="276.16" cy="893.11" r="51.23"/><circle class="cls-18" cx="276.16" cy="893.11" r="51.23"/></g><g class="cls-37"><circle class="cls-5" cx="459.85" cy="893.11" r="51.23"/><circle class="cls-18" cx="459.85" cy="893.11" r="51.23"/></g><g class="cls-38"><rect class="cls-22" x="592.31" y="841.88" width="198.87" height="102.46"/><rect class="cls-18" x="592.31" y="841.88" width="198.87" height="102.46"/></g><g class="cls-39"><text class="cls-24" transform="translate(813.4 914.21)">10</text></g><g class="cls-40"><path class="cls-5" d="M92.47,710.75A51.23,51.23,0,0,1,139.67,742l2.47,8h84.35l2.47-8a51.24,51.24,0,1,1,0,39.89L226.49,774H142.14l-2.47,7.94a51.23,51.23,0,1,1-47.2-71.17Z"/><path class="cls-18" d="M92.47,710.75A51.23,51.23,0,0,1,139.67,742l2.47,8h84.35l2.47-8a51.24,51.24,0,1,1,0,39.89L226.49,774H142.14l-2.47,7.94a51.23,51.23,0,1,1-47.2-71.17Z"/></g><g class="cls-41"><circle class="cls-17" cx="459.85" cy="761.98" r="51.23"/><circle class="cls-18" cx="459.85" cy="761.98" r="51.23"/></g><g class="cls-42"><rect class="cls-22" x="592.31" y="710.75" width="272.64" height="102.46"/><rect class="cls-18" x="592.31" y="710.75" width="272.64" height="102.46"/></g><g class="cls-43"><text class="cls-24" transform="translate(893.77 785.16)">14</text></g><g class="cls-44"><path class="cls-5" d="M459.85,448.47a51.24,51.24,0,1,1-47.2,71.18L411,514.29H141.33l-1.66,5.36a51.24,51.24,0,1,1,0-39.89l2.47,7.94h268l2.47-7.94A51.24,51.24,0,0,1,459.85,448.47Z"/><path class="cls-18" d="M459.85,448.47a51.23,51.23,0,1,1-47.2,71.18L411,514.29H141.33l-1.66,5.36a51.24,51.24,0,1,1,0-39.89l2.47,7.94h268l2.47-7.94A51.24,51.24,0,0,1,459.85,448.47Z"/></g><g class="cls-45"><path class="cls-17" d="M312.39,463.48a51.23,51.23,0,1,1-72.46,0A51.24,51.24,0,0,1,312.39,463.48Z"/><circle class="cls-18" cx="276.16" cy="499.7" r="51.23"/></g><g class="cls-46"><rect class="cls-22" x="592.31" y="448.47" width="409.44" height="102.46"/><rect class="cls-18" x="592.31" y="448.47" width="409.44" height="102.46"/></g><g class="cls-47"><text class="cls-24" transform="translate(1030.58 526.28)">20</text></g><g class="cls-48"><circle class="cls-17" cx="92.47" cy="1155.38" r="51.23"/><circle class="cls-18" cx="92.47" cy="1155.38" r="51.23"/></g><g class="cls-49"><path class="cls-5" d="M459.85,1104.15a51.23,51.23,0,1,1-47.2,71.17l-2.47-7.94H325.83l-2.46,7.94a51.23,51.23,0,1,1,0-39.88l2.46,7.94h84.35l2.47-7.94A51.23,51.23,0,0,1,459.85,1104.15Z"/><path class="cls-18" d="M459.85,1104.15a51.23,51.23,0,1,1-47.2,71.17l-2.47-7.94H325.83l-2.46,7.94a51.23,51.23,0,1,1,0-39.88l2.46,7.94h84.35l2.47-7.94A51.23,51.23,0,0,1,459.85,1104.15Z"/></g><g class="cls-50"><rect class="cls-22" x="592.31" y="1104.15" width="149.8" height="102.46"/><rect class="cls-18" x="592.31" y="1104.15" width="149.8" height="102.46"/></g><g class="cls-51"><text class="cls-24" transform="translate(769.75 1178.56)">7</text></g><g class="cls-52"><path class="cls-5" d="M92.47,1366.42a51.24,51.24,0,0,1,47.2,31.29l2.07,6.65h85.15l2.07-6.65a51.25,51.25,0,0,1,94.41,0l2.06,6.65h85.15l2.07-6.65a51.23,51.23,0,1,1,0,39.89l-2.07-6.65H325.43l-2.06,6.65a51.25,51.25,0,0,1-94.41,0l-2.07-6.65H141.74l-2.07,6.65a51.24,51.24,0,1,1-47.2-71.18Z"/><path class="cls-18" d="M92.47,1366.42a51.24,51.24,0,0,1,47.2,31.29l2.07,6.65h85.15l2.07-6.65a51.25,51.25,0,0,1,94.41,0l2.06,6.65h85.15l2.07-6.65a51.23,51.23,0,1,1,0,39.89l-2.07-6.65H325.43l-2.06,6.65a51.25,51.25,0,0,1-94.41,0l-2.07-6.65H141.74l-2.07,6.65a51.24,51.24,0,1,1-47.2-71.18Z"/></g><g class="cls-53"><rect class="cls-22" x="592.31" y="1366.42" width="100.76" height="102.46"/><rect class="cls-18" x="592.31" y="1366.42" width="100.76" height="102.46"/></g><g class="cls-54"><text class="cls-24" transform="translate(713.06 1440.83)">5</text></g></g></svg>