<svg id="Layer_1" data-name="Layer 1" xmlns="http://www.w3.org/2000/svg" xmlns:xlink="http://www.w3.org/1999/xlink" viewBox="0 0 1860.82 1517.59"><defs><style>.cls-1,.cls-10,.cls-19,.cls-5{fill:none;}.cls-2{clip-path:url(#clip-path);}.cls-12,.cls-3{fill:#fff;}.cls-4{fill:#a08bb9;}.cls-19,.cls-5{stroke:#818181;}.cls-10,.cls-19,.cls-5{stroke-linejoin:round;}.cls-5{stroke-width:6px;}.cls-6{fill:#faa82c;}.cls-7{fill:#49bb81;}.cls-8{clip-path:url(#clip-path-3);}.cls-9{fill:#595a5a;}.cls-10{stroke:#010101;}.cls-10,.cls-19{stroke-width:2px;}.cls-11{clip-path:url(#clip-path-4);}.cls-12{font-size:48px;}.cls-12,.cls-37{font-family:AvenirNext-Bold, Avenir Next;font-weight:700;}.cls-13{clip-path:url(#clip-path-5);}.cls-14{clip-path:url(#clip-path-6);}.cls-15{clip-path:url(#clip-path-7);}.cls-16{clip-path:url(#clip-path-8);}.cls-17{clip-path:url(#clip-path-9);}.cls-18{fill:#f3f3f3;}.cls-20{clip-path:url(#clip-path-10);}.cls-21{clip-path:url(#clip-path-11);}.cls-22{clip-path:url(#clip-path-12);}.cls-23{clip-path:url(#clip-path-13);}.cls-24{clip-path:url(#clip-path-14);}.cls-25{clip-path:url(#clip-path-15);}.cls-26{clip-path:url(#clip-path-16);}.cls-27{clip-path:url(#clip-path-17);}.cls-28{clip-path:url(#clip-path-18);}.cls-29{clip-path:url(#clip-path-19);}.cls-30{clip-path:url(#clip-path-20);}.cls-31{clip-path:url(#clip-path-21);}.cls-32{clip-path:url(#clip-path-22);}.cls-33{clip-path:url(#clip-path-23);}.cls-34{clip-path:url(#clip-path-24);}.cls-35{clip-path:url(#clip-path-25);}.cls-36{clip-path:url(#clip-path-26);}.cls-37{font-size:68px;}.cls-37,.cls-38{fill:#515151;}.cls-38{font-size:65px;font-family:AvenirNext-Regular, Avenir Next;}.cls-39{letter-spacing:-0.02em;}.cls-40{letter-spacing:-0.02em;}.cls-41{letter-spacing:-0.03em;}.cls-42{letter-spacing:0.02em;}.cls-43{letter-spacing:-0.03em;}</style><clipPath id="clip-path"><rect class="cls-1" x="-254.32" y="-41.06" width="2880" height="1620"/></clipPath><clipPath id="clip-path-3"><rect class="cls-1" x="31.68" y="26.17" width="145.23" height="400.98"/></clipPath><clipPath id="clip-path-4"><rect class="cls-1" x="20.89" y="339.16" width="166.81" height="98.78"/></clipPath><clipPath id="clip-path-5"><rect class="cls-1" x="215.37" y="103.71" width="145.23" height="323.44"/></clipPath><clipPath id="clip-path-6"><rect class="cls-1" x="204.58" y="339.16" width="166.81" height="98.78"/></clipPath><clipPath id="clip-path-7"><rect class="cls-1" x="399.06" y="62.17" width="145.23" height="364.98"/></clipPath><clipPath id="clip-path-8"><rect class="cls-1" x="388.27" y="339.16" width="166.81" height="98.78"/></clipPath><clipPath id="clip-path-9"><rect class="cls-1" x="51.06" y="460.94" width="106.46" height="106.46"/></clipPath><clipPath id="clip-path-10"><rect class="cls-1" x="234.76" y="460.94" width="106.46" height="106.46"/></clipPath><clipPath id="clip-path-11"><rect class="cls-1" x="418.45" y="460.94" width="106.46" height="106.46"/></clipPath><clipPath id="clip-path-12"><rect class="cls-1" x="51.06" y="592.08" width="106.46" height="106.46"/></clipPath><clipPath id="clip-path-13"><rect class="cls-1" x="234.76" y="592.08" width="106.46" height="106.46"/></clipPath><clipPath id="clip-path-14"><rect class="cls-1" x="418.45" y="592.07" width="106.46" height="106.46"/></clipPath><clipPath id="clip-path-15"><rect class="cls-1" x="51.06" y="723.21" width="106.46" height="106.46"/></clipPath><clipPath id="clip-path-16"><rect class="cls-1" x="234.76" y="723.21" width="106.46" height="106.46"/></clipPath><clipPath id="clip-path-17"><rect class="cls-1" x="418.45" y="723.21" width="106.46" height="106.46"/></clipPath><clipPath id="clip-path-18"><rect class="cls-1" x="51.06" y="854.35" width="106.46" height="106.46"/></clipPath><clipPath id="clip-path-19"><rect class="cls-1" x="234.76" y="854.35" width="106.46" height="106.46"/></clipPath><clipPath id="clip-path-20"><rect class="cls-1" x="418.45" y="854.35" width="106.46" height="106.46"/></clipPath><clipPath id="clip-path-21"><rect class="cls-1" x="51.06" y="985.48" width="290.15" height="106.46"/></clipPath><clipPath id="clip-path-22"><rect class="cls-1" x="418.45" y="985.48" width="106.46" height="106.46"/></clipPath><clipPath id="clip-path-23"><rect class="cls-1" x="51.06" y="1116.62" width="473.85" height="106.46"/></clipPath><clipPath id="clip-path-24"><rect class="cls-1" x="234.76" y="1116.62" width="106.46" height="106.46"/></clipPath><clipPath id="clip-path-25"><rect class="cls-1" x="51.06" y="1247.75" width="106.46" height="106.46"/></clipPath><clipPath id="clip-path-26"><rect class="cls-1" x="234.76" y="1247.75" width="290.15" height="106.46"/></clipPath></defs><g class="cls-2"><g class="cls-2"><rect class="cls-3" x="-254.32" y="-41.06" width="2880" height="1620"/><rect class="cls-4" x="33.68" y="1364.95" width="508.62" height="132.39"/><rect class="cls-5" x="33.68" y="1364.95" width="508.62" height="132.39"/><rect class="cls-6" x="34.07" y="970.41" width="508.62" height="132.39"/><rect class="cls-5" x="34.07" y="970.41" width="508.62" height="132.39"/><rect class="cls-7" x="33.68" y="708.01" width="508.62" height="132.39"/><rect class="cls-5" x="33.68" y="708.01" width="508.62" height="132.39"/></g><g class="cls-8"><rect class="cls-9" x="33.68" y="28.17" width="141.23" height="396.98"/><rect class="cls-10" x="33.68" y="28.17" width="141.23" height="396.98"/></g><g class="cls-11"><text class="cls-12" transform="translate(86.8 403.98)">A</text></g><g class="cls-13"><rect class="cls-9" x="217.37" y="105.71" width="141.23" height="319.44"/><rect class="cls-10" x="217.37" y="105.71" width="141.23" height="319.44"/></g><g class="cls-14"><text class="cls-12" transform="translate(272.03 403.98)">B</text></g><g class="cls-15"><rect class="cls-9" x="401.06" y="64.17" width="141.23" height="360.98"/><rect class="cls-10" x="401.06" y="64.17" width="141.23" height="360.98"/></g><g class="cls-16"><text class="cls-12" transform="translate(454.97 403.98)">C</text></g><g class="cls-17"><path class="cls-18" d="M140.52,477.94a51.23,51.23,0,1,1-72.45,0A51.24,51.24,0,0,1,140.52,477.94Z"/><circle class="cls-19" cx="104.29" cy="514.17" r="51.23"/></g><g class="cls-20"><path class="cls-18" d="M324.21,477.94a51.23,51.23,0,1,1-72.45,0A51.24,51.24,0,0,1,324.21,477.94Z"/><circle class="cls-19" cx="287.99" cy="514.17" r="51.23"/></g><g class="cls-21"><path class="cls-18" d="M507.9,477.94a51.23,51.23,0,1,1-72.45,0A51.24,51.24,0,0,1,507.9,477.94Z"/><circle class="cls-19" cx="471.68" cy="514.17" r="51.23"/></g><g class="cls-22"><circle class="cls-9" cx="104.29" cy="645.31" r="51.23"/><circle class="cls-19" cx="104.29" cy="645.31" r="51.23"/></g><g class="cls-23"><circle class="cls-18" cx="287.99" cy="645.31" r="51.23"/><circle class="cls-19" cx="287.99" cy="645.31" r="51.23"/></g><g class="cls-24"><circle class="cls-18" cx="471.68" cy="645.31" r="51.23"/><circle class="cls-19" cx="471.68" cy="645.31" r="51.23"/></g><g class="cls-25"><circle class="cls-18" cx="104.29" cy="776.44" r="51.23"/><circle class="cls-19" cx="104.29" cy="776.44" r="51.23"/></g><g class="cls-26"><circle class="cls-9" cx="287.99" cy="776.44" r="51.23"/><circle class="cls-19" cx="287.99" cy="776.44" r="51.23"/></g><g class="cls-27"><circle class="cls-18" cx="471.68" cy="776.44" r="51.23"/><circle class="cls-19" cx="471.68" cy="776.44" r="51.23"/></g><g class="cls-28"><circle class="cls-18" cx="104.29" cy="907.58" r="51.23"/><circle class="cls-19" cx="104.29" cy="907.58" r="51.23"/></g><g class="cls-29"><circle class="cls-18" cx="287.99" cy="907.58" r="51.23"/><circle class="cls-19" cx="287.99" cy="907.58" r="51.23"/></g><g class="cls-30"><circle class="cls-9" cx="471.68" cy="907.58" r="51.23"/><circle class="cls-19" cx="471.68" cy="907.58" r="51.23"/></g><g class="cls-31"><path class="cls-9" d="M104.29,987.48a51.25,51.25,0,0,1,47.21,31.29l2.46,7.94h84.36l2.46-7.94a51.23,51.23,0,1,1,0,39.88l-2.46-7.94H154l-2.46,7.94a51.24,51.24,0,1,1-47.21-71.17Z"/><path class="cls-19" d="M104.29,987.48a51.25,51.25,0,0,1,47.21,31.29l2.46,7.94h84.36l2.46-7.94a51.23,51.23,0,1,1,0,39.88l-2.46-7.94H154l-2.46,7.94a51.24,51.24,0,1,1-47.21-71.17Z"/></g><g class="cls-32"><circle class="cls-18" cx="471.68" cy="1038.71" r="51.23"/><circle class="cls-19" cx="471.68" cy="1038.71" r="51.23"/></g><g class="cls-33"><path class="cls-9" d="M471.68,1118.62a51.23,51.23,0,1,1-47.21,71.17l-1.66-5.35H153.16l-1.66,5.35a51.23,51.23,0,1,1,0-39.88l2.46,7.94H422l2.46-7.94A51.25,51.25,0,0,1,471.68,1118.62Z"/><path class="cls-19" d="M471.68,1118.62a51.23,51.23,0,1,1-47.21,71.17l-1.66-5.35H153.16l-1.66,5.35a51.23,51.23,0,1,1,0-39.88l2.46,7.94H422l2.46-7.94A51.25,51.25,0,0,1,471.68,1118.62Z"/></g><g class="cls-34"><circle class="cls-18" cx="287.99" cy="1169.85" r="51.23"/><circle class="cls-19" cx="287.99" cy="1169.85" r="51.23"/></g><g class="cls-35"><circle class="cls-18" cx="104.29" cy="1300.98" r="51.23"/><circle class="cls-19" cx="104.29" cy="1300.98" r="51.23"/></g><g class="cls-36"><path class="cls-9" d="M471.68,1249.75a51.24,51.24,0,1,1-47.21,71.18l-2.46-8H337.66l-2.47,8a51.24,51.24,0,1,1,0-39.89l2.47,7.94H422l2.46-7.94A51.27,51.27,0,0,1,471.68,1249.75Z"/><path class="cls-19" d="M471.68,1249.75a51.24,51.24,0,1,1-47.21,71.18l-2.46-8H337.66l-2.47,8a51.24,51.24,0,1,1,0-39.89l2.47,7.94H422l2.46-7.94A51.27,51.27,0,0,1,471.68,1249.75Z"/></g><g class="cls-2"><path class="cls-9" d="M104.29,1380.89a51.25,51.25,0,0,1,47.21,31.29l2.06,6.64h85.16l2.06-6.64a51.25,51.25,0,0,1,94.41,0l2.06,6.64h85.16l2.06-6.64a51.23,51.23,0,1,1,0,39.88l-2.06-6.65H337.25l-2.06,6.65a51.25,51.25,0,0,1-94.41,0l-2.06-6.65H153.56l-2.06,6.65a51.24,51.24,0,1,1-47.21-71.17Z"/><path class="cls-19" d="M104.29,1380.89a51.25,51.25,0,0,1,47.21,31.29l2.06,6.64h85.16l2.06-6.64a51.25,51.25,0,0,1,94.41,0l2.06,6.64h85.16l2.06-6.64a51.23,51.23,0,1,1,0,39.88l-2.06-6.65H337.25l-2.06,6.65a51.25,51.25,0,0,1-94.41,0l-2.06-6.65H153.56l-2.06,6.65a51.24,51.24,0,1,1-47.21-71.17Z"/><path class="cls-3" d="M1584.06,333.57a215.29,215.29,0,0,1,84.07,17h0l-4.27,16.61A216.62,216.62,0,0,1,1541.67,502h0l-4.22-16.41a216.25,216.25,0,0,0-68.89-102.44l-11.08-8.29,5.84-4.37A215,215,0,0,1,1584.06,333.57Z"/><path class="cls-5" d="M1584.06,333.57a215.29,215.29,0,0,1,84.07,17h0l-4.27,16.61A216.62,216.62,0,0,1,1541.67,502h0l-4.22-16.41a216.25,216.25,0,0,0-68.89-102.44l-11.08-8.29,5.84-4.37A215,215,0,0,1,1584.06,333.57Z"/><path class="cls-3" d="M1312.2,333.35A215,215,0,0,1,1433,370.24l5.55,4.14-10.79,8.07a216.25,216.25,0,0,0-68.89,102.44l-4.27,16.61-18.86-9.09a216.6,216.6,0,0,1-103.33-125.69l-4.22-16.41,19.82-7.25A215.94,215.94,0,0,1,1312.2,333.35Z"/><path class="cls-5" d="M1312.2,333.35A215,215,0,0,1,1433,370.24l5.55,4.14-10.79,8.07a216.25,216.25,0,0,0-68.89,102.44l-4.27,16.61-18.86-9.09a216.57,216.57,0,0,1-103.33-125.69l-4.22-16.41,19.81-7.25A216.05,216.05,0,0,1,1312.2,333.35Z"/><path class="cls-3" d="M1362.87,523.65h0a216.93,216.93,0,0,0,148.31,7.27l19.81-7.25,1.11,4.29a216.47,216.47,0,0,1-74.22,210.21l-10.78,8.06L1436,738a216.36,216.36,0,0,1-74.21-210.2Z"/><path class="cls-5" d="M1362.87,523.65h0a216.93,216.93,0,0,0,148.31,7.27l19.81-7.25,1.11,4.29a216.47,216.47,0,0,1-74.22,210.21l-10.78,8.06L1436,738a216.36,216.36,0,0,1-74.21-210.2Z"/><path class="cls-3" d="M1447,67.1c119.29,0,216,96.71,216,216a216.76,216.76,0,0,1-4.39,43.53l-1,4.09h0a216.37,216.37,0,0,0-204.84,19.92l-5.84,4.37-5.55-4.15a216.45,216.45,0,0,0-185-27.17l-19.81,7.25-1.11-4.3A217.49,217.49,0,0,1,1231,283.1C1231,163.81,1327.67,67.1,1447,67.1Z"/><path class="cls-5" d="M1447,67.1c119.29,0,216,96.71,216,216a216.76,216.76,0,0,1-4.39,43.53l-1,4.09h0a216.37,216.37,0,0,0-204.84,19.92l-5.84,4.37-5.55-4.15a216.45,216.45,0,0,0-185-27.17l-19.81,7.25-1.11-4.3A217.49,217.49,0,0,1,1231,283.1C1231,163.81,1327.67,67.1,1447,67.1Z"/><path class="cls-3" d="M1674.14,375l18.86,9.09a215.94,215.94,0,0,1,113,189.93c0,119.29-96.7,216-216,216a215,215,0,0,1-120.76-36.89l-5.55-4.15,10.79-8.06a216.38,216.38,0,0,0,74.21-210.21l-1.1-4.3h0a216.59,216.59,0,0,0,122.21-134.79Z"/><path class="cls-5" d="M1674.14,375l18.86,9.09a215.94,215.94,0,0,1,113,189.93c0,119.29-96.7,216-216,216a215,215,0,0,1-120.76-36.89l-5.55-4.15,10.79-8.06a216.38,216.38,0,0,0,74.21-210.21l-1.1-4.3h0a216.59,216.59,0,0,0,122.21-134.79Z"/><path class="cls-3" d="M1219.84,372.47l4.22,16.4a216.59,216.59,0,0,0,103.33,125.7l18.86,9.08-1,4.1A216.35,216.35,0,0,0,1419.42,738l11.08,8.29-5.84,4.37a215,215,0,0,1-120.77,36.89c-119.29,0-216-96.7-216-216a216.06,216.06,0,0,1,131.92-199Z"/><path class="cls-5" d="M1219.84,372.47l4.22,16.4a216.59,216.59,0,0,0,103.33,125.7l18.86,9.08-1,4.1A216.35,216.35,0,0,0,1419.42,738l11.08,8.29-5.84,4.37a215,215,0,0,1-120.77,36.89c-119.29,0-216-96.7-216-216a216.06,216.06,0,0,1,131.92-199Z"/><path class="cls-3" d="M1446.82,382.69,1457.9,391a216.25,216.25,0,0,1,68.89,102.44l4.22,16.41-19.81,7.25a217,217,0,0,1-148.31-7.26h0l4.27-16.61A216.33,216.33,0,0,1,1436,390.75Z"/><path class="cls-5" d="M1446.82,382.69,1457.9,391a216.25,216.25,0,0,1,68.89,102.44l4.22,16.41-19.81,7.25a217,217,0,0,1-148.31-7.26h0l4.27-16.61A216.33,216.33,0,0,1,1436,390.75Z"/><path class="cls-3" d="M1583.06,334.57a215.29,215.29,0,0,1,84.07,17h0l-4.27,16.61A216.62,216.62,0,0,1,1540.67,503h0l-4.22-16.41a216.25,216.25,0,0,0-68.89-102.44l-11.08-8.29,5.84-4.37A215,215,0,0,1,1583.06,334.57Z"/><path class="cls-5" d="M1583.06,334.57a215.29,215.29,0,0,1,84.07,17h0l-4.27,16.61A216.62,216.62,0,0,1,1540.67,503h0l-4.22-16.41a216.25,216.25,0,0,0-68.89-102.44l-11.08-8.29,5.84-4.37A215,215,0,0,1,1583.06,334.57Z"/><path class="cls-6" d="M1311.2,334.35A215,215,0,0,1,1432,371.24l5.55,4.14-10.79,8.07a216.25,216.25,0,0,0-68.89,102.44l-4.27,16.61-18.86-9.09a216.6,216.6,0,0,1-103.33-125.69l-4.22-16.41,19.82-7.25A215.94,215.94,0,0,1,1311.2,334.35Z"/><path class="cls-5" d="M1311.2,334.35A215,215,0,0,1,1432,371.24l5.55,4.14-10.79,8.07a216.25,216.25,0,0,0-68.89,102.44l-4.27,16.61-18.86-9.09a216.57,216.57,0,0,1-103.33-125.69l-4.22-16.41,19.81-7.25A216.05,216.05,0,0,1,1311.2,334.35Z"/><path class="cls-3" d="M1361.87,524.65h0a216.93,216.93,0,0,0,148.31,7.27l19.81-7.25,1.11,4.29a216.47,216.47,0,0,1-74.22,210.21l-10.78,8.06L1435,739a216.36,216.36,0,0,1-74.21-210.2Z"/><path class="cls-5" d="M1361.87,524.65h0a216.93,216.93,0,0,0,148.31,7.27l19.81-7.25,1.11,4.29a216.47,216.47,0,0,1-74.22,210.21l-10.78,8.06L1435,739a216.36,216.36,0,0,1-74.21-210.2Z"/><path class="cls-3" d="M1446,68.1c119.29,0,216,96.71,216,216a216.76,216.76,0,0,1-4.39,43.53l-1,4.09h0a216.37,216.37,0,0,0-204.84,19.92l-5.84,4.37-5.55-4.15a216.45,216.45,0,0,0-185-27.17l-19.81,7.25-1.11-4.3A217.49,217.49,0,0,1,1230,284.1C1230,164.81,1326.67,68.1,1446,68.1Z"/><path class="cls-5" d="M1446,68.1c119.29,0,216,96.71,216,216a216.76,216.76,0,0,1-4.39,43.53l-1,4.09h0a216.37,216.37,0,0,0-204.84,19.92l-5.84,4.37-5.55-4.15a216.45,216.45,0,0,0-185-27.17l-19.81,7.25-1.11-4.3A217.49,217.49,0,0,1,1230,284.1C1230,164.81,1326.67,68.1,1446,68.1Z"/><path class="cls-3" d="M1673.14,376l18.86,9.09a215.94,215.94,0,0,1,113,189.93c0,119.29-96.7,216-216,216a215,215,0,0,1-120.76-36.89l-5.55-4.15,10.79-8.06a216.38,216.38,0,0,0,74.21-210.21l-1.1-4.3h0a216.59,216.59,0,0,0,122.21-134.79Z"/><path class="cls-5" d="M1673.14,376l18.86,9.09a215.94,215.94,0,0,1,113,189.93c0,119.29-96.7,216-216,216a215,215,0,0,1-120.76-36.89l-5.55-4.15,10.79-8.06a216.38,216.38,0,0,0,74.21-210.21l-1.1-4.3h0a216.59,216.59,0,0,0,122.21-134.79Z"/><path class="cls-7" d="M1218.84,373.47l4.22,16.4a216.59,216.59,0,0,0,103.33,125.7l18.86,9.08-1,4.1A216.35,216.35,0,0,0,1418.42,739l11.08,8.29-5.84,4.37a215,215,0,0,1-120.77,36.89c-119.29,0-216-96.7-216-216a216.06,216.06,0,0,1,131.92-199Z"/><path class="cls-5" d="M1218.84,373.47l4.22,16.4a216.59,216.59,0,0,0,103.33,125.7l18.86,9.08-1,4.1A216.35,216.35,0,0,0,1418.42,739l11.08,8.29-5.84,4.37a215,215,0,0,1-120.77,36.89c-119.29,0-216-96.7-216-216a216.06,216.06,0,0,1,131.92-199Z"/><path class="cls-4" d="M1445.82,383.69,1456.9,392a216.25,216.25,0,0,1,68.89,102.44l4.22,16.41-19.81,7.25a217,217,0,0,1-148.31-7.26h0l4.27-16.61A216.33,216.33,0,0,1,1435,391.75Z"/><path class="cls-5" d="M1445.82,383.69,1456.9,392a216.25,216.25,0,0,1,68.89,102.44l4.22,16.41-19.81,7.25a217,217,0,0,1-148.31-7.26h0l4.27-16.61A216.33,216.33,0,0,1,1435,391.75Z"/><text class="cls-37" transform="translate(1633.62 112.66)">A</text><text class="cls-37" transform="translate(1046.95 773.71)">B</text><text class="cls-37" transform="translate(1798.75 773.71)">C</text><text class="cls-38" transform="translate(631.53 534.88)">In no set</text><text class="cls-38" transform="translate(631.53 789.65)">Just in B</text><text class="cls-38" transform="translate(631.53 1059.42)">In<tspan class="cls-39" x="54.66" y="0"> </tspan><tspan class="cls-40" x="69.81" y="0">A</tspan><tspan x="114.14" y="0" xml:space="preserve"> and B</tspan><tspan class="cls-41" x="301.86" y="0">,</tspan><tspan x="316.81" y="0" xml:space="preserve"> but not in C</tspan></text><text class="cls-38" transform="translate(613.9 1452.83)">In all o<tspan class="cls-42" x="194.35" y="0">f</tspan><tspan class="cls-39" x="215.02" y="0"> </tspan><tspan x="230.16" y="0">A</tspan><tspan class="cls-43" x="275.66" y="0">,</tspan><tspan x="290.68" y="0" xml:space="preserve"> B,and C</tspan></text></g></g></svg>