<svg width="481" height="440" viewBox="0 0 481 440" fill="none" xmlns="http://www.w3.org/2000/svg">
<style>
    #favicon__letters{
        fill:black;
        stroke:black;

    }
    @media (prefers-color-scheme: dark){
        #favicon__letters{
            fill:white;
            stroke:white;
        }
    }
</style>
<g clip-path="url(#clip0_43_2)">
<path d="M345.034 107.955C341.461 106.009 338.256 104.152 334.391 101.912C342.842 96.5688 350.869 91.494 359.656 85.9381C354.852 81.5819 350.432 77.2192 345.647 73.304C334.092 63.8513 321.298 56.3837 307.855 49.9025C292.482 42.4909 276.478 37.1227 259.559 35.0855C246.678 33.5344 233.613 31.6919 220.746 32.3289C206.667 33.0258 192.521 35.5936 178.78 38.9037C167.514 41.6173 156.361 45.7251 145.96 50.8441C134.935 56.2705 124.334 62.9281 114.513 70.3292C105.185 77.3594 96.2527 85.32 88.6944 94.1905C79.5346 104.94 71.4478 116.73 63.955 128.731C58.9246 136.788 55.7357 145.993 51.7146 154.681C50.5895 157.112 49.602 158.607 46.1357 157.191C38.481 154.065 30.5751 151.509 22.6587 149.09C19.7162 148.191 20.186 146.992 20.9212 144.822C27.2987 126.003 36.2384 108.39 48.1791 92.6378C57.4008 80.4727 67.7705 69.0611 78.5377 58.2158C90.3042 46.364 104.198 37.0446 118.682 28.682C138.565 17.2023 159.872 9.38419 182.195 4.41564C190.291 2.61356 198.642 1.68535 206.93 1.08283C217.327 0.326954 227.796 -0.231031 238.203 0.0950501C261.194 0.815417 283.502 5.56658 305.055 13.54C323.91 20.5151 341.646 29.7881 357.627 42.0163C368.068 50.0058 377.877 58.8222 388.318 67.5611C396.11 62.6378 404.579 57.2869 413.539 51.6255C414.101 53.4778 414.879 54.9387 414.943 56.4305C415.38 66.5186 415.646 76.6138 416.004 86.7054C416.662 105.23 417.34 123.754 418.033 142.278C418.061 143.034 418.318 143.781 418.772 146.05C393.754 133.091 369.577 120.567 345.034 107.955Z" fill="#F05A31"/>
<path d="M97.2906 355.769C104.654 361.79 111.563 367.826 118.899 373.287C136.061 386.063 155.255 394.807 175.675 400.971C196.213 407.171 217.288 408.921 238.578 407.907C257.734 406.995 276.316 403.059 294.358 396.324C312.251 389.644 328.7 380.294 343.461 368.493C353.947 360.11 362.817 349.696 372.336 340.117C374.412 338.028 375.971 335.385 378.195 333.501C379.121 332.717 381.628 332.592 382.625 333.293C390.198 338.621 397.575 344.228 405.549 350.146C396.249 364.928 383.968 377.151 370.948 388.094C337.235 416.428 298.302 434.001 254.309 438.888C199.299 444.998 148.454 432.736 102.508 401.737C76.2502 384.021 42.9083 346.342 36.9192 328.74C45.7709 323.615 54.6943 318.448 62.7328 313.794C74.22 327.77 85.6252 341.647 97.2906 355.769Z" fill="#F05A31"/>
<path d="M395.863 227.793C396.473 216.773 396.473 194.323 397.293 183.923C397.903 179.023 395.863 173.313 402.603 172.293C404.643 172.093 409.953 175.153 410.153 177.393C410.353 178.613 409.743 179.843 409.543 180.863C406.273 204.733 406.683 219.633 406.483 240.243C406.283 252.483 406.073 265.133 405.663 277.383C405.463 282.893 406.073 298.813 400.153 298.813C395.253 298.813 390.153 293.513 393.213 293.513C394.433 282.693 395.053 250.863 395.863 227.803V227.793Z" id="favicon__letters"/>
<path d="M442.183 185.343C438.103 185.543 434.833 182.483 434.633 178.203C434.633 175.143 435.243 172.283 438.713 172.283C439.933 172.283 441.573 172.893 442.793 172.893C445.853 173.093 448.713 173.303 451.773 173.303L457.893 172.893C459.933 172.893 461.973 172.693 464.223 172.693C468.513 172.693 472.793 172.893 476.673 173.513C479.323 173.713 479.733 175.143 480.553 176.983C480.753 179.023 479.533 180.863 477.903 181.883L463.623 182.293C462.193 189.233 461.173 195.553 460.363 202.293C456.693 229.633 453.833 257.593 454.653 285.143C454.653 286.983 454.853 289.023 455.673 290.443C455.873 292.283 456.083 294.113 456.083 295.753C456.083 298.813 453.433 300.043 450.773 300.043C444.443 300.043 444.443 293.313 444.443 288.213C443.423 257.193 447.093 225.973 450.563 195.163C450.763 191.083 451.383 187.413 451.173 183.533C447.503 184.143 446.073 185.373 442.193 185.373L442.183 185.343Z" id="favicon__letters"/>
<path d="M136.923 144.383C140.133 144.383 142.693 145.343 145.583 145.663C148.793 148.553 151.353 151.113 151.673 155.283C151.993 164.583 152.953 174.203 152.953 181.893C153.913 213.633 154.873 245.063 156.483 275.203C156.483 276.803 156.803 279.053 157.763 279.373C158.403 279.693 158.083 277.773 158.723 275.203C165.453 240.253 174.113 193.753 184.053 154.643C185.973 147.593 187.263 140.853 189.823 134.123C191.423 134.123 196.553 132.843 199.123 132.843C203.293 132.843 205.853 136.693 204.893 140.863C195.913 177.733 187.583 216.533 179.883 253.733C175.713 272.013 174.113 286.763 170.583 306.323C169.623 310.493 168.023 314.663 168.023 318.823C167.703 324.273 164.173 327.483 159.363 327.483C158.083 327.483 156.803 327.163 155.193 326.523C151.343 324.273 148.783 324.923 145.253 321.393C143.973 319.793 143.653 317.223 143.653 315.623C143.653 311.773 143.333 309.213 143.333 306.323C139.803 283.553 138.203 260.793 137.243 238.023C135.963 210.443 137.243 181.273 132.753 153.373C131.473 150.803 132.753 147.923 132.433 145.033C134.033 144.393 135.643 144.393 136.923 144.393V144.383Z" id="favicon__letters"/>
<path d="M238.893 217.163C239.853 199.853 239.853 164.573 241.133 148.223C242.093 140.523 238.893 131.553 249.473 129.943C252.683 129.623 261.013 134.433 261.333 137.963C261.653 139.883 260.693 141.813 260.373 143.413C255.243 180.933 255.883 204.333 255.563 236.723C255.243 255.963 254.923 275.843 254.283 295.083C253.963 303.743 254.923 328.753 245.623 328.753C237.923 328.753 229.913 320.413 234.723 320.413C236.643 303.423 237.613 253.393 238.893 217.163Z" id="favicon__letters"/>
<path d="M312.633 314.643C329.953 314.003 336.043 285.463 335.723 271.673C334.763 238.323 302.053 230.313 300.453 188.303C300.133 167.463 327.063 129.623 348.873 128.983C355.603 128.983 363.303 134.433 363.623 141.483C363.623 145.013 360.733 147.573 357.213 147.573C356.253 147.573 354.973 147.253 353.683 146.613C333.803 147.253 315.843 174.193 316.483 192.463C317.123 218.113 350.153 229.013 351.753 272.623C352.073 293.463 337.643 329.703 314.233 330.663C306.533 330.983 299.163 325.213 297.563 317.833C299.163 314.623 301.413 311.103 304.293 310.783C306.543 314.313 310.063 314.633 312.633 314.633V314.643Z" id="favicon__letters"/>
<path d="M11.5931 174.203C15.0331 174.203 17.2631 176.023 18.8831 178.863C23.1331 182.303 33.6731 186.563 34.0831 204.593C34.4931 220.603 25.3731 232.353 18.6831 240.053C19.6931 241.063 23.7531 252.003 24.1531 253.023C29.4231 265.183 36.5131 277.743 37.9331 280.373C38.7431 282.193 36.7131 283.003 34.8931 283.003H33.6831C25.3731 281.783 15.2431 256.463 12.0031 249.573C12.0031 256.863 11.3931 260.713 11.1931 266.183C10.9931 269.023 10.1831 281.383 10.3831 290.703C10.5831 296.583 10.1831 301.033 7.75314 301.033C2.68314 301.033 0.253136 299.813 0.0531356 294.343C-0.146864 286.233 0.253136 278.133 0.663136 270.233C1.27314 253.613 1.88314 237.203 2.69314 220.793C3.10314 214.713 5.12314 196.273 4.72314 190.403C4.52314 184.323 1.68314 183.713 1.68314 182.303C4.72314 178.863 6.75314 174.403 11.6131 174.193L11.5931 174.203ZM23.9531 205.003C24.1531 197.103 19.7031 191.633 16.0531 191.023C15.4431 199.733 13.6231 221.213 12.8131 229.923C17.6731 226.473 23.5531 216.143 23.9531 205.003Z" id="favicon__letters"/>
<path d="M70.1432 179.263C70.9532 177.233 71.9632 176.023 74.3932 175.813C76.6232 175.613 80.0632 175.203 83.7132 175.203C89.7932 175.203 96.2732 176.423 96.6832 182.293C96.8832 184.723 95.2632 185.733 93.0332 185.733L75.6032 186.743C76.4132 187.553 78.0332 188.973 78.0332 190.393C78.0332 192.013 77.2232 193.433 76.8132 195.253C74.9932 204.773 74.5832 219.773 73.5732 228.283L90.7932 228.893C93.2232 228.893 94.8432 229.503 94.8432 231.733C94.8432 233.353 93.4232 235.583 91.8032 236.193C90.5832 236.193 88.9632 237.003 87.7532 237.203C83.9032 237.613 77.8232 237.813 73.9732 238.823C71.5432 239.433 72.1532 242.263 71.7432 245.103C69.9232 258.883 69.5132 271.443 69.7132 285.623C74.5732 284.203 80.0432 281.163 84.7032 281.163C88.1432 281.163 92.8032 282.383 92.8032 286.433C92.8032 288.863 91.1832 289.673 88.7532 289.873C80.2432 291.093 73.3532 296.763 63.0232 296.963C59.1732 296.963 58.3632 292.303 58.3632 289.463C58.3632 276.703 58.7732 263.733 59.7832 251.173C61.2032 231.523 63.4332 211.463 65.2532 191.803C65.8632 186.533 65.4532 186.533 70.5232 183.693L70.1132 179.233L70.1432 179.263Z" id="favicon__letters"/>
<path d="M13.0931 238.683C13.0931 238.683 24.1231 263.763 32.4931 279.013C38.7931 290.473 44.9831 300.453 47.3531 300.243" id="favicon__letters"/>
<path d="M13.0931 238.683C13.0931 238.683 24.1231 263.763 32.4931 279.013C38.7931 290.473 44.9831 300.453 47.3531 300.243" id="favicon_letters" stroke-width="10" stroke-linecap="round" stroke-linejoin="round"/>
</g>
<defs>
<clipPath id="clip0_43_2">
<rect width="481" height="440" id="favicon__letters"/>
</clipPath>
</defs>
</svg>
