<?xml version="1.0" encoding="UTF-8"?>
<svg id="Layer_1" data-name="Layer 1" xmlns="http://www.w3.org/2000/svg" version="1.1" viewBox="0 0 720 300">
  <defs>
    <style>
      .cls-1, .cls-2 {
        stroke-width: 0px;
      }

      .cls-1, .cls-3 {
        fill: #000;
      }

      .cls-2 {
        fill: #d3d3d3;
      }

      .cls-4 {
        stroke: #000;
      }

      .cls-4, .cls-5 {
        fill: none;
        stroke-linejoin: round;
        stroke-width: 1.1px;
      }

      .cls-5 {
        stroke: #fff;
      }

      .cls-6, .cls-3 {
        isolation: isolate;
      }

      .cls-3 {
        font-family: ArialMT, Arial;
        font-size: 11.9px;
      }
    </style>
  </defs>
  <line class="cls-5" x1="20.6" y1="222.3" x2="702.1" y2="222.3"/>
  <rect class="cls-2" x="31.2" y="163.2" width="29.4" height="59.1"/>
  <rect class="cls-2" x="73.3" y="150.2" width="29.4" height="72.1"/>
  <rect class="cls-1" x="115.3" y="181.8" width="29.4" height="40.5"/>
  <rect class="cls-2" x="157.3" y="185" width="29.4" height="37.2"/>
  <rect class="cls-2" x="199.4" y="180.2" width="29.5" height="42.1"/>
  <rect class="cls-2" x="241.5" y="142.9" width="29.5" height="79.4"/>
  <rect class="cls-2" x="283.6" y="187.5" width="29.5" height="34.9"/>
  <rect class="cls-2" x="325.6" y="205.3" width="29.4" height="17"/>
  <rect class="cls-2" x="367.7" y="134" width="29.5" height="88.3"/>
  <rect class="cls-2" x="409.8" y="204.4" width="29.5" height="17.9"/>
  <rect class="cls-2" x="451.8" y="74.9" width="29.5" height="147.4"/>
  <rect class="cls-1" x="493.8" y="129.2" width="29.5" height="93.1"/>
  <rect class="cls-2" x="535.9" y="97.5" width="29.5" height="124.7"/>
  <rect class="cls-2" x="578" y="203.7" width="29.4" height="18.6"/>
  <rect class="cls-2" x="620.1" y="157.5" width="29.4" height="64.8"/>
  <rect class="cls-2" x="662.1" y="145.3" width="29.5" height="76.9"/>
  <g class="cls-6">
    <text class="cls-3" transform="translate(39.3 160.5)"><tspan x="0" y="0">73</tspan></text>
  </g>
  <g class="cls-6">
    <text class="cls-3" transform="translate(81.4 147.6)"><tspan x="0" y="0">89</tspan></text>
  </g>
  <g class="cls-6">
    <text class="cls-3" transform="translate(123.4 179.1)"><tspan x="0" y="0">50</tspan></text>
  </g>
  <g class="cls-6">
    <text class="cls-3" transform="translate(165.5 182.4)"><tspan x="0" y="0">46</tspan></text>
  </g>
  <g class="cls-6">
    <text class="cls-3" transform="translate(207.6 177.5)"><tspan x="0" y="0">52</tspan></text>
  </g>
  <g class="cls-6">
    <text class="cls-3" transform="translate(249.6 140.2)"><tspan x="0" y="0">98</tspan></text>
  </g>
  <g class="cls-6">
    <text class="cls-3" transform="translate(291.6 184.8)"><tspan x="0" y="0">43</tspan></text>
  </g>
  <g class="cls-6">
    <text class="cls-3" transform="translate(333.7 202.7)"><tspan x="0" y="0">21</tspan></text>
  </g>
  <g class="cls-6">
    <text class="cls-3" transform="translate(372.5 131.3)"><tspan x="0" y="0">109</tspan></text>
  </g>
  <g class="cls-6">
    <text class="cls-3" transform="translate(417.9 201.8)"><tspan x="0" y="0">22</tspan></text>
  </g>
  <g class="cls-6">
    <text class="cls-3" transform="translate(456.6 72.2)"><tspan x="0" y="0">182</tspan></text>
  </g>
  <g class="cls-6">
    <text class="cls-3" transform="translate(499.1 126.5)"><tspan x="0" y="0">115</tspan></text>
  </g>
  <g class="cls-6">
    <text class="cls-3" transform="translate(540.7 94.9)"><tspan x="0" y="0">154</tspan></text>
  </g>
  <g class="cls-6">
    <text class="cls-3" transform="translate(586.1 201)"><tspan x="0" y="0">23</tspan></text>
  </g>
  <g class="cls-6">
    <text class="cls-3" transform="translate(628.1 154.9)"><tspan x="0" y="0">80</tspan></text>
  </g>
  <g class="cls-6">
    <text class="cls-3" transform="translate(670.2 142.7)"><tspan x="0" y="0">95</tspan></text>
  </g>
  <line class="cls-4" x1="20.6" y1="222.3" x2="702.1" y2="222.3"/>
</svg>