<?xml version="1.0" encoding="UTF-8"?>
<svg id="Layer_1" data-name="Layer 1" xmlns="http://www.w3.org/2000/svg" version="1.1" viewBox="0 0 720 288">
  <defs>
    <style>
      .cls-1 {
        font-size: 11px;
        isolation: isolate;
      }

      .cls-1, .cls-2, .cls-3 {
        fill: #000;
        font-family: ArialMT, Arial;
      }

      .cls-4 {
        letter-spacing: 0em;
      }

      .cls-5 {
        letter-spacing: 0em;
      }

      .cls-6 {
        letter-spacing: 0em;
      }

      .cls-7 {
        letter-spacing: 0em;
      }

      .cls-8 {
        fill: #d3d3d3;
        stroke-width: 0px;
      }

      .cls-9 {
        letter-spacing: 0em;
      }

      .cls-10 {
        stroke: #000;
      }

      .cls-10, .cls-11 {
        fill: none;
        stroke-linejoin: round;
        stroke-width: 1.1px;
      }

      .cls-2 {
        font-size: 11.5px;
      }

      .cls-11 {
        stroke: #fff;
      }

      .cls-3 {
        font-size: 11px;
      }
    </style>
  </defs>
  <g>
    <line class="cls-11" x1="38.5" y1="212.6" x2="684" y2="212.6"/>
    <rect class="cls-8" x="48.4" y="127.6" width="27.9" height="85"/>
    <rect class="cls-8" x="88.3" y="109.6" width="27.9" height="103"/>
    <rect class="cls-8" x="128.1" y="72.9" width="27.9" height="139.6"/>
    <rect class="cls-8" x="168" y="134.6" width="27.9" height="78"/>
    <rect class="cls-8" x="207.8" y="135.2" width="27.9" height="77.4"/>
    <rect class="cls-8" x="247.7" y="152.7" width="27.9" height="59.9"/>
    <rect class="cls-8" x="287.5" y="148.6" width="27.9" height="64"/>
    <rect class="cls-8" x="327.4" y="194.6" width="27.9" height="18"/>
    <rect class="cls-8" x="367.2" y="149.8" width="27.9" height="62.8"/>
    <rect class="cls-8" x="407.1" y="132.9" width="27.9" height="79.7"/>
    <rect class="cls-8" x="446.9" y="141.6" width="27.9" height="71"/>
    <rect class="cls-8" x="486.8" y="96.2" width="27.9" height="116.4"/>
    <rect class="cls-8" x="526.6" y="166" width="27.9" height="46.5"/>
    <rect class="cls-8" x="566.5" y="171.3" width="27.9" height="41.3"/>
    <rect class="cls-8" x="606.3" y="150.3" width="27.9" height="62.3"/>
    <rect class="cls-8" x="646.1" y="177.7" width="27.9" height="34.9"/>
    <text class="cls-1" transform="translate(92.8 107.8)"><tspan class="cls-6" x="0" y="0">17</tspan><tspan x="12.7" y="0">7</tspan></text>
    <text class="cls-1" transform="translate(132.7 71.2)"><tspan class="cls-5" x="0" y="0">24</tspan><tspan x="12.7" y="0">0</tspan></text>
    <text class="cls-1" transform="translate(172.5 132.8)"><tspan class="cls-5" x="0" y="0">13</tspan><tspan x="12.7" y="0">4</tspan></text>
    <text class="cls-1" transform="translate(212.3 133.4)"><tspan class="cls-6" x="0" y="0">13</tspan><tspan x="12.7" y="0">3</tspan></text>
    <text class="cls-1" transform="translate(252.2 150.9)"><tspan class="cls-5" x="0" y="0">10</tspan><tspan x="12.7" y="0">3</tspan></text>
    <text class="cls-1" transform="translate(292.4 146.8)"><tspan class="cls-6" x="0" y="0">11</tspan><tspan x="12.7" y="0">0</tspan></text>
    <text class="cls-1" transform="translate(335 192.8)"><tspan class="cls-7" x="0" y="0">3</tspan><tspan x="6.4" y="0">1</tspan></text>
    <text class="cls-1" transform="translate(371.7 148)"><tspan class="cls-4" x="0" y="0">10</tspan><tspan x="12.7" y="0">8</tspan></text>
    <text class="cls-1" transform="translate(411.6 131.1)"><tspan class="cls-4" x="0" y="0">13</tspan><tspan x="12.7" y="0">7</tspan></text>
    <text class="cls-1" transform="translate(451.4 139.8)"><tspan class="cls-4" x="0" y="0">12</tspan><tspan x="12.7" y="0">2</tspan></text>
    <text class="cls-1" transform="translate(534.3 164.3)"><tspan class="cls-9" x="0" y="0">8</tspan><tspan x="6.4" y="0">0</tspan></text>
    <text class="cls-1" transform="translate(574.1 169.5)"><tspan class="cls-9" x="0" y="0">7</tspan><tspan x="6.4" y="0">1</tspan></text>
    <text class="cls-1" transform="translate(610.8 148.5)"><tspan class="cls-4" x="0" y="0">10</tspan><tspan x="12.7" y="0">7</tspan></text>
    <text class="cls-1" transform="translate(653.8 175.9)"><tspan class="cls-9" x="0" y="0">6</tspan><tspan x="6.4" y="0">0</tspan></text>
    <line class="cls-10" x1="38.5" y1="212.6" x2="684" y2="212.6"/>
  </g>
  <text class="cls-2" transform="translate(51.2 126.3)"><tspan x="0" y="0">146</tspan></text>
  <text class="cls-3" transform="translate(490.7 92.7)"><tspan x="0" y="0">200</tspan></text>
</svg>