<?xml version="1.0" encoding="UTF-8"?>
<svg id="Layer_2" data-name="Layer 2" xmlns="http://www.w3.org/2000/svg" viewBox="0 0 211.59 210.35">
  <defs>
    <style>
      .cls-1 {
        fill: none;
        stroke: #231f20;
        stroke-miterlimit: 10;
      }

      .cls-2 {
        fill: #231f20;
        stroke-width: 0px;
      }
    </style>
  </defs>
  <g id="Layer_1-2" data-name="Layer 1">
    <g>
      <g>
        <path class="cls-2" d="M26.33,67.06c12.47,1.63,21.21,13.09,19.53,25.6-1.68,12.51-13.15,21.34-25.62,19.71S-.98,99.28.71,86.77c1.68-12.51,13.15-21.34,25.62-19.71Z"/>
        <path class="cls-1" d="M26.33,67.06c12.47,1.63,21.21,13.09,19.53,25.6-1.68,12.51-13.15,21.34-25.62,19.71S-.98,99.28.71,86.77c1.68-12.51,13.15-21.34,25.62-19.71Z"/>
      </g>
      <g>
        <path class="cls-2" d="M36.89,103.68c-5.75,9.98-16.49,11.82-24.01,4.11-7.51-7.71-8.95-22.06-3.2-32.05,5.75-9.98,16.49-11.82,24.01-4.11s8.95,22.06,3.2,32.05Z"/>
        <path class="cls-1" d="M36.89,103.68c-5.75,9.98-16.49,11.82-24.01,4.11-7.51-7.71-8.95-22.06-3.2-32.05,5.75-9.98,16.49-11.82,24.01-4.11s8.95,22.06,3.2,32.05Z"/>
      </g>
      <g>
        <path class="cls-2" d="M9.07,94.51c-4.34-9.97-1.5-20.2,6.35-22.85,7.85-2.65,17.73,3.28,22.07,13.25s1.5,20.2-6.35,22.85-17.73-3.28-22.07-13.25Z"/>
        <path class="cls-1" d="M9.07,94.51c-4.34-9.97-1.5-20.2,6.35-22.85,7.85-2.65,17.73,3.28,22.07,13.25s1.5,20.2-6.35,22.85-17.73-3.28-22.07-13.25Z"/>
      </g>
      <g>
        <circle class="cls-2" cx="23.28" cy="89.71" r="14.87"/>
        <circle class="cls-1" cx="23.28" cy="89.71" r="14.87"/>
      </g>
    </g>
    <g>
      <g>
        <ellipse class="cls-2" cx="44.99" cy="160.09" rx="22.88" ry="22.75" transform="translate(-116.51 120.45) rotate(-60.51)"/>
        <ellipse class="cls-1" cx="44.99" cy="160.09" rx="22.88" ry="22.75" transform="translate(-116.51 120.45) rotate(-60.51)"/>
      </g>
      <g>
        <path class="cls-2" d="M61.61,154.67c2.29,12.26-3.29,24.62-12.46,27.62-9.18,3-18.48-4.51-20.77-16.77s3.29-24.62,12.46-27.62c9.18-3,18.48,4.51,20.77,16.77Z"/>
        <path class="cls-1" d="M61.61,154.67c2.29,12.26-3.29,24.62-12.46,27.62-9.18,3-18.48-4.51-20.77-16.77s3.29-24.62,12.46-27.62c9.18-3,18.48,4.51,20.77,16.77Z"/>
      </g>
      <g>
        <path class="cls-2" d="M42.28,177.2c-8.84-4.14-14.8-15.16-13.3-24.6,1.5-9.45,9.88-13.75,18.73-9.6s14.8,15.16,13.3,24.6-9.88,13.75-18.73,9.6Z"/>
        <path class="cls-1" d="M42.28,177.2c-8.84-4.14-14.8-15.16-13.3-24.6,1.5-9.45,9.88-13.75,18.73-9.6s14.8,15.16,13.3,24.6-9.88,13.75-18.73,9.6Z"/>
      </g>
      <g>
        <circle class="cls-2" cx="44.99" cy="160.09" r="14.87"/>
        <circle class="cls-1" cx="44.99" cy="160.09" r="14.87"/>
      </g>
    </g>
    <g>
      <g>
        <path class="cls-2" d="M90.87,189.17c-1.13-12.56,8.1-23.72,20.63-24.92,12.53-1.2,23.6,8.01,24.74,20.57,1.13,12.56-8.1,23.72-20.63,24.92-12.53,1.2-23.6-8.01-24.74-20.57Z"/>
        <path class="cls-1" d="M90.87,189.17c-1.13-12.56,8.1-23.72,20.63-24.92,12.53-1.2,23.6,8.01,24.74,20.57,1.13,12.56-8.1,23.72-20.63,24.92-12.53,1.2-23.6-8.01-24.74-20.57Z"/>
      </g>
      <g>
        <path class="cls-2" d="M120.67,166.27c8.61,5.3,12.4,18.88,8.47,30.33-3.93,11.45-14.09,16.44-22.69,11.14-8.61-5.3-12.4-18.88-8.47-30.33s14.09-16.44,22.69-11.14Z"/>
        <path class="cls-1" d="M120.67,166.27c8.61,5.3,12.4,18.88,8.47,30.33-3.93,11.45-14.09,16.44-22.69,11.14-8.61-5.3-12.4-18.88-8.47-30.33s14.09-16.44,22.69-11.14Z"/>
      </g>
      <g>
        <path class="cls-2" d="M124.38,203.52c-6.69,4.8-16.95,1.3-22.93-7.83-5.98-9.13-5.41-20.42,1.28-25.22,6.69-4.8,16.95-1.3,22.93,7.83s5.41,20.42-1.28,25.22Z"/>
        <path class="cls-1" d="M124.38,203.52c-6.69,4.8-16.95,1.3-22.93-7.83-5.98-9.13-5.41-20.42,1.28-25.22,6.69-4.8,16.95-1.3,22.93,7.83s5.41,20.42-1.28,25.22Z"/>
      </g>
      <g>
        <circle class="cls-2" cx="113.55" cy="187" r="14.87"/>
        <circle class="cls-1" cx="113.55" cy="187" r="14.87"/>
      </g>
    </g>
    <g>
      <g>
        <ellipse class="cls-2" cx="177.33" cy="150.17" rx="22.88" ry="22.75" transform="translate(-40.67 230.62) rotate(-60.51)"/>
        <ellipse class="cls-1" cx="177.33" cy="150.17" rx="22.88" ry="22.75" transform="translate(-40.67 230.62) rotate(-60.51)"/>
      </g>
      <g>
        <path class="cls-2" d="M169.59,129.74c8.44-5.65,18.74-1.08,23.02,10.2,4.28,11.28.91,25.01-7.53,30.66-8.44,5.65-18.74,1.08-23.02-10.2-4.28-11.28-.91-25.01,7.53-30.66Z"/>
        <path class="cls-1" d="M169.59,129.74c8.44-5.65,18.74-1.08,23.02,10.2,4.28,11.28.91,25.01-7.53,30.66-8.44,5.65-18.74,1.08-23.02-10.2-4.28-11.28-.91-25.01,7.53-30.66Z"/>
      </g>
      <g>
        <path class="cls-2" d="M193.55,153.67c.51,10.13-6.34,16.77-15.3,14.84-8.95-1.94-16.62-11.72-17.13-21.85-.51-10.13,6.34-16.77,15.3-14.84,8.95,1.94,16.62,11.72,17.13,21.85Z"/>
        <path class="cls-1" d="M193.55,153.67c.51,10.13-6.34,16.77-15.3,14.84-8.95-1.94-16.62-11.72-17.13-21.85-.51-10.13,6.34-16.77,15.3-14.84,8.95,1.94,16.62,11.72,17.13,21.85Z"/>
      </g>
      <g>
        <circle class="cls-2" cx="177.33" cy="150.17" r="14.87"/>
        <circle class="cls-1" cx="177.33" cy="150.17" r="14.87"/>
      </g>
    </g>
    <g>
      <g>
        <path class="cls-2" d="M195.36,99.03c-11.96,3.97-24.82-2.53-28.71-14.51-3.89-11.98,2.65-24.9,14.61-28.87,11.96-3.97,24.82,2.53,28.71,14.51,3.89,11.98-2.65,24.9-14.61,28.87Z"/>
        <path class="cls-1" d="M195.36,99.03c-11.96,3.97-24.82-2.53-28.71-14.51-3.89-11.98,2.65-24.9,14.61-28.87,11.96-3.97,24.82,2.53,28.71,14.51,3.89,11.98-2.65,24.9-14.61,28.87Z"/>
      </g>
      <g>
        <path class="cls-2" d="M171.53,72.6c1.91-12.34,10.98-20.23,20.24-17.61,9.26,2.62,15.22,14.74,13.31,27.09-1.91,12.34-10.98,20.23-20.24,17.61-9.26-2.62-15.22-14.74-13.31-27.09Z"/>
        <path class="cls-1" d="M171.53,72.6c1.91-12.34,10.98-20.23,20.24-17.61,9.26,2.62,15.22,14.74,13.31,27.09-1.91,12.34-10.98,20.23-20.24,17.61-9.26-2.62-15.22-14.74-13.31-27.09Z"/>
      </g>
      <g>
        <path class="cls-2" d="M197.7,65.18c7.32,7.83,9.04,19.62,3.86,26.33-5.19,6.71-15.32,5.81-22.64-2.02-7.32-7.83-9.04-19.62-3.86-26.33,5.19-6.71,15.32-5.81,22.64,2.02Z"/>
        <path class="cls-1" d="M197.7,65.18c7.32,7.83,9.04,19.62,3.86,26.33-5.19,6.71-15.32,5.81-22.64-2.02-7.32-7.83-9.04-19.62-3.86-26.33,5.19-6.71,15.32-5.81,22.64,2.02Z"/>
      </g>
      <g>
        <circle class="cls-2" cx="188.31" cy="77.34" r="14.87"/>
        <circle class="cls-1" cx="188.31" cy="77.34" r="14.87"/>
      </g>
    </g>
    <g>
      <g>
        <ellipse class="cls-2" cx="138.2" cy="23.35" rx="22.88" ry="22.75" transform="translate(49.85 132.16) rotate(-60.51)"/>
        <ellipse class="cls-1" cx="138.2" cy="23.35" rx="22.88" ry="22.75" transform="translate(49.85 132.16) rotate(-60.51)"/>
      </g>
      <g>
        <path class="cls-2" d="M125.04,37.87c-6.05-9.74-5.06-24.14,2.22-32.16,7.27-8.02,18.07-6.62,24.12,3.12,6.05,9.74,5.06,24.14-2.22,32.16-7.27,8.02-18.07,6.62-24.12-3.12Z"/>
        <path class="cls-1" d="M125.04,37.87c-6.05-9.74-5.06-24.14,2.22-32.16,7.27-8.02,18.07-6.62,24.12,3.12,6.05,9.74,5.06,24.14-2.22,32.16-7.27,8.02-18.07,6.62-24.12-3.12Z"/>
      </g>
      <g>
        <path class="cls-2" d="M133.7,4.69c8.62-.37,17.62,7.69,20.11,18,2.49,10.31-2.48,18.96-11.1,19.33-8.62.37-17.62-7.69-20.11-18-2.49-10.31,2.48-18.96,11.1-19.33Z"/>
        <path class="cls-1" d="M133.7,4.69c8.62-.37,17.62,7.69,20.11,18,2.49,10.31-2.48,18.96-11.1,19.33-8.62.37-17.62-7.69-20.11-18-2.49-10.31,2.48-18.96,11.1-19.33Z"/>
      </g>
      <g>
        <circle class="cls-2" cx="138.2" cy="23.35" r="14.87"/>
        <circle class="cls-1" cx="138.2" cy="23.35" r="14.87"/>
      </g>
    </g>
    <g>
      <g>
        <path class="cls-2" d="M84.31,17.04c6.46,10.8,2.94,24.84-7.85,31.38-10.8,6.53-24.78,3.08-31.24-7.72-6.46-10.8-2.94-24.84,7.85-31.38,10.8-6.53,24.78-3.08,31.24,7.72Z"/>
        <path class="cls-1" d="M84.31,17.04c6.46,10.8,2.94,24.84-7.85,31.38-10.8,6.53-24.78,3.08-31.24-7.72-6.46-10.8-2.94-24.84,7.85-31.38,10.8-6.53,24.78-3.08,31.24,7.72Z"/>
      </g>
      <g>
        <ellipse class="cls-2" cx="64.76" cy="28.87" rx="17.13" ry="22.85" transform="translate(-.25 .57) rotate(-.5)"/>
        <ellipse class="cls-1" cx="64.76" cy="28.87" rx="17.13" ry="22.85" transform="translate(-.25 .57) rotate(-.5)"/>
      </g>
      <g>
        <path class="cls-2" d="M49.75,17.75c3.43-8.29,12.93-10.03,21.21-3.89,8.29,6.14,12.23,17.83,8.8,26.12-3.43,8.29-12.93,10.03-21.21,3.89-8.29-6.14-12.23-17.83-8.8-26.12Z"/>
        <path class="cls-1" d="M49.75,17.75c3.43-8.29,12.93-10.03,21.21-3.89,8.29,6.14,12.23,17.83,8.8,26.12-3.43,8.29-12.93,10.03-21.21,3.89-8.29-6.14-12.23-17.83-8.8-26.12Z"/>
      </g>
      <g>
        <circle class="cls-2" cx="64.76" cy="28.87" r="14.87"/>
        <circle class="cls-1" cx="64.76" cy="28.87" r="14.87"/>
      </g>
    </g>
  </g>
</svg>