<?xml version="1.0" encoding="UTF-8"?>
<svg id="Layer_1" data-name="Layer 1" xmlns="http://www.w3.org/2000/svg" version="1.1" viewBox="0 0 720 300">
  <defs>
    <style>
      .cls-1 {
        font-family: ArialMT, Arial;
        font-size: 11.9px;
        isolation: isolate;
      }

      .cls-1, .cls-2 {
        fill: #000;
      }

      .cls-2, .cls-3 {
        stroke-width: 0px;
      }

      .cls-3 {
        fill: #d3d3d3;
      }

      .cls-4 {
        stroke: #000;
      }

      .cls-4, .cls-5 {
        fill: none;
        stroke-linejoin: round;
        stroke-width: 1.1px;
      }

      .cls-5 {
        stroke: #fff;
      }
    </style>
  </defs>
  <line class="cls-5" x1="20.7" y1="222" x2="702.1" y2="222"/>
  <rect class="cls-3" x="31.2" y="162.9" width="29.4" height="59.1"/>
  <rect class="cls-3" x="73.2" y="150" width="29.4" height="72.1"/>
  <rect class="cls-2" x="115.3" y="181.5" width="29.4" height="40.5"/>
  <rect class="cls-3" x="157.4" y="184.8" width="29.4" height="37.3"/>
  <rect class="cls-3" x="199.4" y="179.9" width="29.4" height="42.1"/>
  <rect class="cls-3" x="241.5" y="142.7" width="29.4" height="79.4"/>
  <rect class="cls-3" x="283.6" y="187.2" width="29.4" height="34.8"/>
  <rect class="cls-3" x="325.6" y="205" width="29.4" height="17"/>
  <rect class="cls-3" x="367.7" y="133.8" width="29.4" height="88.3"/>
  <rect class="cls-3" x="409.7" y="204.2" width="29.4" height="17.8"/>
  <rect class="cls-3" x="451.8" y="74.6" width="29.4" height="147.4"/>
  <rect class="cls-3" x="493.9" y="128.9" width="29.4" height="93.1"/>
  <rect class="cls-3" x="535.9" y="97.3" width="29.4" height="124.7"/>
  <rect class="cls-3" x="578" y="203.4" width="29.4" height="18.6"/>
  <rect class="cls-3" x="620" y="157.2" width="29.4" height="64.8"/>
  <rect class="cls-3" x="662.1" y="145.1" width="29.4" height="76.9"/>
  <text class="cls-1" transform="translate(39.3 159.3)"><tspan x="0" y="0">73</tspan></text>
  <text class="cls-1" transform="translate(81.4 146.3)"><tspan x="0" y="0">89</tspan></text>
  <text class="cls-1" transform="translate(123.4 177.9)"><tspan x="0" y="0">50</tspan></text>
  <text class="cls-1" transform="translate(165.5 181.1)"><tspan x="0" y="0">46</tspan></text>
  <text class="cls-1" transform="translate(207.5 176.3)"><tspan x="0" y="0">52</tspan></text>
  <text class="cls-1" transform="translate(249.6 139)"><tspan x="0" y="0">98</tspan></text>
  <text class="cls-1" transform="translate(291.7 183.6)"><tspan x="0" y="0">43</tspan></text>
  <text class="cls-1" transform="translate(333.7 201.4)"><tspan x="0" y="0">21</tspan></text>
  <text class="cls-1" transform="translate(372.5 130.1)"><tspan x="0" y="0">109</tspan></text>
  <text class="cls-1" transform="translate(417.8 200.6)"><tspan x="0" y="0">22</tspan></text>
  <text class="cls-1" transform="translate(456.6 71)"><tspan x="0" y="0">182</tspan></text>
  <text class="cls-1" transform="translate(499.1 125.2)"><tspan x="0" y="0">115</tspan></text>
  <text class="cls-1" transform="translate(540.7 93.7)"><tspan x="0" y="0">154</tspan></text>
  <text class="cls-1" transform="translate(586.1 199.8)"><tspan x="0" y="0">23</tspan></text>
  <text class="cls-1" transform="translate(628.2 153.6)"><tspan x="0" y="0">80</tspan></text>
  <text class="cls-1" transform="translate(670.2 141.4)"><tspan x="0" y="0">95</tspan></text>
  <line class="cls-4" x1="20.7" y1="222" x2="702.1" y2="222"/>
</svg>