<?xml version="1.0" encoding="UTF-8"?>
<svg id="Layer_1" data-name="Layer 1" xmlns="http://www.w3.org/2000/svg" xmlns:xlink="http://www.w3.org/1999/xlink" version="1.1" viewBox="0 0 720 300">
  <defs>
    <style>
      .cls-1 {
        font-family: ArialMT, Arial;
        font-size: 11.9px;
        isolation: isolate;
      }

      .cls-1, .cls-2 {
        fill: #000;
      }

      .cls-3 {
        clip-path: url(#clippath);
      }

      .cls-4, .cls-2, .cls-5, .cls-6 {
        stroke-width: 0px;
      }

      .cls-4, .cls-7, .cls-8, .cls-9 {
        fill: none;
      }

      .cls-10 {
        stroke-linecap: round;
      }

      .cls-10, .cls-7, .cls-8, .cls-9 {
        stroke-linejoin: round;
      }

      .cls-10, .cls-7, .cls-9 {
        stroke: #fff;
      }

      .cls-10, .cls-8, .cls-9 {
        stroke-width: 1.1px;
      }

      .cls-10, .cls-6 {
        fill: #fff;
      }

      .cls-11 {
        clip-path: url(#clippath-1);
      }

      .cls-5 {
        fill: #d3d3d3;
      }

      .cls-7 {
        stroke-width: .5px;
      }

      .cls-8 {
        stroke: #000;
      }
    </style>
    <clipPath id="clippath">
      <rect class="cls-4" x="18" y="13.2" width="684" height="273.6"/>
    </clipPath>
    <clipPath id="clippath-1">
      <rect class="cls-4" x="20.6" y="13.2" width="681.4" height="273.6"/>
    </clipPath>
  </defs>
  <rect class="cls-6" x="18" y="13.2" width="684" height="273.6"/>
  <g class="cls-3">
    <rect class="cls-10" x="18" y="13.2" width="684" height="273.6"/>
  </g>
  <g class="cls-11">
    <g>
      <line class="cls-7" x1="20.6" y1="373.8" x2="702" y2="373.8"/>
      <line class="cls-7" x1="20.6" y1="272.9" x2="702" y2="272.9"/>
      <line class="cls-7" x1="20.6" y1="171.9" x2="702" y2="171.9"/>
      <line class="cls-7" x1="20.6" y1="71" x2="702" y2="71"/>
      <line class="cls-7" x1="20.6" y1="-30" x2="702" y2="-30"/>
      <line class="cls-9" x1="20.6" y1="323.4" x2="702" y2="323.4"/>
      <line class="cls-9" x1="20.6" y1="222.4" x2="702" y2="222.4"/>
      <line class="cls-9" x1="20.6" y1="121.4" x2="702" y2="121.4"/>
      <line class="cls-9" x1="20.6" y1="20.5" x2="702" y2="20.5"/>
      <line class="cls-9" x1="20.6" y1="-80.5" x2="702" y2="-80.5"/>
      <line class="cls-9" x1="45.8" y1="391.9" x2="45.8" y2="-94.5"/>
      <line class="cls-9" x1="87.9" y1="391.9" x2="87.9" y2="-94.5"/>
      <line class="cls-9" x1="130" y1="391.9" x2="130" y2="-94.5"/>
      <line class="cls-9" x1="172" y1="391.9" x2="172" y2="-94.5"/>
      <line class="cls-9" x1="214.1" y1="391.9" x2="214.1" y2="-94.5"/>
      <line class="cls-9" x1="256.1" y1="391.9" x2="256.1" y2="-94.5"/>
      <line class="cls-9" x1="298.2" y1="391.9" x2="298.2" y2="-94.5"/>
      <line class="cls-9" x1="340.3" y1="391.9" x2="340.3" y2="-94.5"/>
      <line class="cls-9" x1="382.3" y1="391.9" x2="382.3" y2="-94.5"/>
      <line class="cls-9" x1="424.4" y1="391.9" x2="424.4" y2="-94.5"/>
      <line class="cls-9" x1="466.5" y1="391.9" x2="466.5" y2="-94.5"/>
      <line class="cls-9" x1="508.5" y1="391.9" x2="508.5" y2="-94.5"/>
      <line class="cls-9" x1="550.6" y1="391.9" x2="550.6" y2="-94.5"/>
      <line class="cls-9" x1="592.6" y1="391.9" x2="592.6" y2="-94.5"/>
      <line class="cls-9" x1="634.7" y1="391.9" x2="634.7" y2="-94.5"/>
      <line class="cls-9" x1="676.8" y1="391.9" x2="676.8" y2="-94.5"/>
      <rect class="cls-5" x="31.1" y="138.6" width="29.4" height="83.8"/>
      <rect class="cls-5" x="73.2" y="127.5" width="29.4" height="94.9"/>
      <rect class="cls-5" x="115.2" y="157.8" width="29.4" height="64.6"/>
      <rect class="cls-5" x="157.3" y="130.5" width="29.4" height="91.9"/>
      <rect class="cls-5" x="199.4" y="189.1" width="29.4" height="33.3"/>
      <rect class="cls-5" x="241.4" y="75" width="29.4" height="147.4"/>
      <rect class="cls-5" x="283.5" y="166.9" width="29.4" height="55.5"/>
      <rect class="cls-5" x="325.6" y="187.1" width="29.4" height="35.3"/>
      <rect class="cls-5" x="367.6" y="177" width="29.4" height="45.4"/>
      <rect class="cls-5" x="409.7" y="140.6" width="29.4" height="81.8"/>
      <rect class="cls-2" x="451.7" y="113.4" width="29.4" height="109"/>
      <rect class="cls-5" x="493.8" y="81.1" width="29.4" height="141.3"/>
      <rect class="cls-5" x="535.9" y="105.3" width="29.4" height="117.1"/>
      <rect class="cls-5" x="577.9" y="83.1" width="29.4" height="139.3"/>
      <rect class="cls-5" x="620" y="84.1" width="29.4" height="138.3"/>
      <rect class="cls-5" x="662" y="152.7" width="29.4" height="69.7"/>
      <text class="cls-1" transform="translate(39.2 136)"><tspan x="0" y="0">83</tspan></text>
      <text class="cls-1" transform="translate(81.3 124.8)"><tspan x="0" y="0">94</tspan></text>
      <text class="cls-1" transform="translate(123.4 155.1)"><tspan x="0" y="0">64</tspan></text>
      <text class="cls-1" transform="translate(165.4 127.9)"><tspan x="0" y="0">91</tspan></text>
      <text class="cls-1" transform="translate(207.5 186.4)"><tspan x="0" y="0">33</tspan></text>
      <text class="cls-1" transform="translate(246.2 72.3)"><tspan x="0" y="0">146</tspan></text>
      <text class="cls-1" transform="translate(291.6 164.2)"><tspan x="0" y="0">55</tspan></text>
      <text class="cls-1" transform="translate(333.7 184.4)"><tspan x="0" y="0">35</tspan></text>
      <text class="cls-1" transform="translate(375.7 174.3)"><tspan x="0" y="0">45</tspan></text>
      <text class="cls-1" transform="translate(417.8 138)"><tspan x="0" y="0">81</tspan></text>
      <text class="cls-1" transform="translate(456.5 110.7)"><tspan x="0" y="0">108</tspan></text>
      <text class="cls-1" transform="translate(498.6 78.4)"><tspan x="0" y="0">140</tspan></text>
      <text class="cls-1" transform="translate(541.1 102.6)"><tspan x="0" y="0">116</tspan></text>
      <text class="cls-1" transform="translate(582.7 80.4)"><tspan x="0" y="0">138</tspan></text>
      <text class="cls-1" transform="translate(624.8 81.4)"><tspan x="0" y="0">137</tspan></text>
      <text class="cls-1" transform="translate(670.1 150.1)"><tspan x="0" y="0">69</tspan></text>
      <line class="cls-8" x1="20.6" y1="222.4" x2="702" y2="222.4"/>
    </g>
  </g>
</svg>