<?xml version="1.0" encoding="utf-8"?>
<!-- Generator: Adobe Illustrator 22.1.0, SVG Export Plug-In . SVG Version: 6.00 Build 0)  -->
<svg version="1.1" id="Layer_1" xmlns="http://www.w3.org/2000/svg" xmlns:xlink="http://www.w3.org/1999/xlink" x="0px" y="0px"
	 viewBox="0 0 612 792" style="enable-background:new 0 0 612 792;" xml:space="preserve">
<style type="text/css">
	.st0{fill:#4D4D4D;}
</style>
<path class="st0" d="M401,330.7H212c-3.7,0-6.6,3-6.6,6.6v116.4c0,3.7,3,6.6,6.6,6.6h189c3.7,0,6.6-3,6.6-6.6V337.4
	C407.7,333.7,404.7,330.7,401,330.7z M272.9,374.3h-52.4v-17.1h52.4V374.3z M272.9,354h-52.4v-17h52.4V354z M332.1,414.9h-52.4v-17
	h52.4V414.9z M332.1,394.6h-52.4v-17h52.4V394.6z M394.8,456.5h-52.4v-17h52.4V456.5z M394.8,434.9h-52.4v-17h52.4V434.9z"/>
</svg>
