<svg xmlns="http://www.w3.org/2000/svg" xmlns:xlink="http://www.w3.org/1999/xlink" version="1.1" class="marks" width="1076" height="394" viewBox="0 0 538 197"><g fill="none" stroke-miterlimit="10" transform="translate(13,131)"><g class="mark-group role-frame root" role="graphics-object" aria-roledescription="group mark container"><g transform="translate(0,0)"><path class="background" aria-hidden="true" d="M0,0h500v30h-500Z"/><g><g class="mark-group role-axis" role="graphics-symbol" aria-roledescription="axis" aria-label="X-axis for a linear scale with values from 0 to 500"><g transform="translate(0.5,0.5)"><path class="background" aria-hidden="true" d="M0,0h0v0h0Z" pointer-events="none"/><g><g class="mark-rule role-axis-tick" pointer-events="none"><line transform="translate(0,0)" x2="0" y2="-5" stroke="#888" stroke-width="1" opacity="1"/><line transform="translate(20,0)" x2="0" y2="-5" stroke="#888" stroke-width="1" opacity="1"/><line transform="translate(100,0)" x2="0" y2="-5" stroke="#888" stroke-width="1" opacity="1"/><line transform="translate(150,0)" x2="0" y2="-5" stroke="#888" stroke-width="1" opacity="1"/><line transform="translate(400,0)" x2="0" y2="-5" stroke="#888" stroke-width="1" opacity="1"/><line transform="translate(450,0)" x2="0" y2="-5" stroke="#888" stroke-width="1" opacity="1"/><line transform="translate(500,0)" x2="0" y2="-5" stroke="#888" stroke-width="1" opacity="1"/></g><g class="mark-text role-axis-label" pointer-events="none"><text text-anchor="middle" transform="translate(0,-9)" font-family="sans-serif" font-size="10px" fill="#000" opacity="1">0</text><text text-anchor="middle" transform="translate(20,-9)" font-family="sans-serif" font-size="10px" fill="#000" opacity="1">20</text><text text-anchor="middle" transform="translate(100,-9)" font-family="sans-serif" font-size="10px" fill="#000" opacity="1">100</text><text text-anchor="middle" transform="translate(150,-9)" font-family="sans-serif" font-size="10px" fill="#000" opacity="1">150</text><text text-anchor="middle" transform="translate(400,-9)" font-family="sans-serif" font-size="10px" fill="#000" opacity="1">400</text><text text-anchor="middle" transform="translate(450,-9)" font-family="sans-serif" font-size="10px" fill="#000" opacity="1">450</text><text text-anchor="middle" transform="translate(500,-9)" font-family="sans-serif" font-size="10px" fill="#000" opacity="1">500</text></g><g class="mark-rule role-axis-domain" pointer-events="none"><line transform="translate(0,0)" x2="500" y2="0" stroke="#888" stroke-width="1" opacity="1"/></g></g><path class="foreground" aria-hidden="true" d="" pointer-events="none" display="none"/></g></g><g class="mark-rect role-mark" role="graphics-symbol" aria-roledescription="rect mark container"><path d="M0,0h20v30h-20Z" fill="red"/><path d="M20,0h80v30h-80Z" fill="orange"/><path d="M100,0h50v30h-50Z" fill="yellow"/><path d="M150,0h250v30h-250Z" fill="green"/><path d="M400,0h50v30h-50Z" fill="yellow"/><path d="M450,0h50v30h-50Z" fill="orange"/></g><g class="mark-text role-mark" role="graphics-object" aria-roledescription="text mark container"><text text-anchor="middle" transform="translate(10,43)" font-family="sans-serif" font-size="9px" fill="black"><tspan>Very</tspan><tspan x="0" dy="11">Low</tspan></text><text text-anchor="middle" transform="translate(60,43)" font-family="sans-serif" font-size="9px" fill="black">Low</text><text text-anchor="middle" transform="translate(125,43)" font-family="sans-serif" font-size="9px" fill="black"><tspan>Borderline</tspan><tspan x="0" dy="11">Low</tspan></text><text text-anchor="middle" transform="translate(275,43)" font-family="sans-serif" font-size="9px" fill="black"><tspan>Standard</tspan><tspan x="0" dy="11">Range</tspan></text><text text-anchor="middle" transform="translate(425,43)" font-family="sans-serif" font-size="9px" fill="black"><tspan>Borderline</tspan><tspan x="0" dy="11">High</tspan></text><text text-anchor="middle" transform="translate(475,43)" font-family="sans-serif" font-size="9px" fill="black">High</text></g><g class="mark-rule role-mark" role="graphics-symbol" aria-roledescription="rule mark container"><line transform="translate(20,0)" x2="0" y2="30" stroke="white" stroke-width="1"/><line transform="translate(100,0)" x2="0" y2="30" stroke="white" stroke-width="1"/><line transform="translate(150,0)" x2="0" y2="30" stroke="white" stroke-width="1"/><line transform="translate(400,0)" x2="0" y2="30" stroke="white" stroke-width="1"/><line transform="translate(450,0)" x2="0" y2="30" stroke="white" stroke-width="1"/></g><g class="mark-rule role-mark" role="graphics-symbol" aria-roledescription="rule mark container"><line transform="translate(135,-55)" x2="0" y2="20" stroke="black" stroke-width="3"/></g><g class="mark-symbol role-mark" role="graphics-symbol" aria-roledescription="symbol mark container"><path transform="translate(135,-30)" d="M0,4.841L-5.59,-4.841L5.59,-4.841Z" fill="black"/></g><g class="mark-text role-mark" role="graphics-object" aria-roledescription="text mark container"><text text-anchor="middle" transform="translate(135,-87)" font-family="sans-serif" font-size="12px" fill="black">Your result</text></g><g class="mark-text role-mark" role="graphics-object" aria-roledescription="text mark container"><text text-anchor="middle" transform="translate(135,-65)" font-family="sans-serif" font-size="18px" fill="black">135 x 10^9/L</text></g><g class="mark-rule role-mark" role="graphics-symbol" aria-roledescription="rule mark container"><line transform="translate(135,0)" x2="0" y2="30" stroke="black" stroke-width="3"/></g><g class="mark-symbol role-mark" role="graphics-symbol" aria-roledescription="symbol mark container"><path transform="translate(507,15)" d="M-7.706,-15.411L7.706,0L-7.706,15.411Z" fill="red"/></g><g class="mark-group role-title"><g transform="translate(255.96213375185562,-121)"><path class="background" aria-hidden="true" d="M0,0h0v0h0Z" pointer-events="none"/><g><g class="mark-text role-title-text" role="graphics-symbol" aria-roledescription="title" aria-label="Title text 'Platelet Count (Plt) Test Result'" pointer-events="none"><text text-anchor="middle" transform="translate(0,16)" font-family="Arial" font-size="20px" font-weight="bold" fill="black" opacity="1">Platelet Count (Plt) Test Result</text></g></g><path class="foreground" aria-hidden="true" d="" pointer-events="none" display="none"/></g></g></g><path class="foreground" aria-hidden="true" d="" display="none"/></g></g></g></svg>