<svg xmlns="http://www.w3.org/2000/svg" xmlns:xlink="http://www.w3.org/1999/xlink" version="1.1" class="marks" width="334" height="224" viewBox="0 0 334 224"><g fill="none" stroke-miterlimit="10" transform="translate(15,158)"><g class="mark-group role-frame root" role="graphics-object" aria-roledescription="group mark container"><g transform="translate(0,0)"><path class="background" aria-hidden="true" d="M0,0h300v30h-300Z"/><g><g class="mark-group role-axis" role="graphics-symbol" aria-roledescription="axis" aria-label="X-axis for a linear scale with values from 0 to 500"><g transform="translate(0.5,0.5)"><path class="background" aria-hidden="true" d="M0,0h0v0h0Z" pointer-events="none"/><g><g class="mark-rule role-axis-tick" pointer-events="none"><line transform="translate(0,0)" x2="0" y2="-5" stroke="#888" stroke-width="1" opacity="1"/><line transform="translate(12,0)" x2="0" y2="-5" stroke="#888" stroke-width="1" opacity="1"/><line transform="translate(60,0)" x2="0" y2="-5" stroke="#888" stroke-width="1" opacity="1"/><line transform="translate(90,0)" x2="0" y2="-5" stroke="#888" stroke-width="1" opacity="1"/><line transform="translate(240,0)" x2="0" y2="-5" stroke="#888" stroke-width="1" opacity="1"/><line transform="translate(270,0)" x2="0" y2="-5" stroke="#888" stroke-width="1" opacity="1"/><line transform="translate(300,0)" x2="0" y2="-5" stroke="#888" stroke-width="1" opacity="1"/></g><g class="mark-text role-axis-label" pointer-events="none"><text text-anchor="middle" transform="translate(0,-9)" font-family="sans-serif" font-size="10px" fill="#000" opacity="1">0</text><text text-anchor="middle" transform="translate(12,-9)" font-family="sans-serif" font-size="10px" fill="#000" opacity="1">20</text><text text-anchor="middle" transform="translate(60,-9)" font-family="sans-serif" font-size="10px" fill="#000" opacity="1">100</text><text text-anchor="middle" transform="translate(90,-9)" font-family="sans-serif" font-size="10px" fill="#000" opacity="1">150</text><text text-anchor="middle" transform="translate(240,-9)" font-family="sans-serif" font-size="10px" fill="#000" opacity="1">400</text><text text-anchor="middle" transform="translate(270,-9)" font-family="sans-serif" font-size="10px" fill="#000" opacity="1">450</text><text text-anchor="middle" transform="translate(300,-9)" font-family="sans-serif" font-size="10px" fill="#000" opacity="1">500</text></g><g class="mark-rule role-axis-domain" pointer-events="none"><line transform="translate(0,0)" x2="300" y2="0" stroke="#888" stroke-width="1" opacity="1"/></g></g><path class="foreground" aria-hidden="true" d="" pointer-events="none" display="none"/></g></g><g class="mark-rect role-mark" role="graphics-symbol" aria-roledescription="rect mark container"><path d="M0,0h12v30h-12Z" fill="red"/><path d="M12,0h48v30h-48Z" fill="orange"/><path d="M60,0h30v30h-30Z" fill="yellow"/><path d="M90,0h150v30h-150Z" fill="green"/><path d="M240,0h30v30h-30Z" fill="yellow"/><path d="M270,0h30v30h-30Z" fill="orange"/></g><g class="mark-text role-mark" role="graphics-object" aria-roledescription="text mark container"><text text-anchor="middle" transform="translate(6,43)" font-family="sans-serif" font-size="9px" fill="black"><tspan>Very</tspan><tspan x="0" dy="11">Low</tspan></text><text text-anchor="middle" transform="translate(36,43)" font-family="sans-serif" font-size="9px" fill="black">Low</text><text text-anchor="middle" transform="translate(75,43)" font-family="sans-serif" font-size="9px" fill="black"><tspan>Borderline</tspan><tspan x="0" dy="11">Low</tspan></text><text text-anchor="middle" transform="translate(165,43)" font-family="sans-serif" font-size="9px" fill="black"><tspan>Standard</tspan><tspan x="0" dy="11">Range</tspan></text><text text-anchor="middle" transform="translate(255,43)" font-family="sans-serif" font-size="9px" fill="black"><tspan>Borderline</tspan><tspan x="0" dy="11">High</tspan></text><text text-anchor="middle" transform="translate(285,43)" font-family="sans-serif" font-size="9px" fill="black">High</text></g><g class="mark-rule role-mark" role="graphics-symbol" aria-roledescription="rule mark container"><line transform="translate(12,0)" x2="0" y2="30" stroke="white" stroke-width="1"/><line transform="translate(60,0)" x2="0" y2="30" stroke="white" stroke-width="1"/><line transform="translate(90,0)" x2="0" y2="30" stroke="white" stroke-width="1"/><line transform="translate(240,0)" x2="0" y2="30" stroke="white" stroke-width="1"/><line transform="translate(270,0)" x2="0" y2="30" stroke="white" stroke-width="1"/></g><g class="mark-rule role-mark" role="graphics-symbol" aria-roledescription="rule mark container"><line transform="translate(81,-80)" x2="0" y2="45" stroke="black" stroke-width="3"/></g><g class="mark-symbol role-mark" role="graphics-symbol" aria-roledescription="symbol mark container"><path transform="translate(81,-30)" d="M0,5.303L-6.124,-5.303L6.124,-5.303Z" fill="black"/></g><g class="mark-text role-mark" role="graphics-object" aria-roledescription="text mark container"><text text-anchor="middle" transform="translate(81,-120)" font-family="sans-serif" font-size="14px" fill="black">Your result</text></g><g class="mark-text role-mark" role="graphics-object" aria-roledescription="text mark container"><text text-anchor="middle" transform="translate(81,-90)" font-family="sans-serif" font-size="30px" fill="black">135 x 10^9/L</text></g><g class="mark-rule role-mark" role="graphics-symbol" aria-roledescription="rule mark container"><line transform="translate(81,0)" x2="0" y2="30" stroke="black" stroke-width="3"/></g><g class="mark-group role-title"><g transform="translate(151.95263671875,-148)"><path class="background" aria-hidden="true" d="M0,0h0v0h0Z" pointer-events="none"/><g><g class="mark-text role-title-text" role="graphics-symbol" aria-roledescription="title" aria-label="Title text 'Platelet Count (Plt) Test Result'" pointer-events="none"><text text-anchor="middle" transform="translate(0,10)" font-family="Arial" font-size="13px" font-weight="bold" fill="black" opacity="1">Platelet Count (Plt) Test Result</text></g></g><path class="foreground" aria-hidden="true" d="" pointer-events="none" display="none"/></g></g></g><path class="foreground" aria-hidden="true" d="" display="none"/></g></g></g></svg>