<?xml version="1.0" encoding="utf-8"?>
<!-- Generator: Adobe Illustrator 22.1.0, SVG Export Plug-In . SVG Version: 6.00 Build 0)  -->
<svg version="1.1" id="Layer_1" xmlns="http://www.w3.org/2000/svg" xmlns:xlink="http://www.w3.org/1999/xlink" x="0px" y="0px"
	 viewBox="0 0 612 792" style="enable-background:new 0 0 612 792;" xml:space="preserve">
<style type="text/css">
	.st0{fill:#4D4D4D;}
</style>
<path class="st0" d="M401.1,331.2h-189c-3.7,0-6.6,3-6.6,6.6v116.4c0,3.7,3,6.6,6.6,6.6h189c3.7,0,6.6-3,6.6-6.6V337.8
	C407.7,334.2,404.8,331.2,401.1,331.2z M223.7,344.3H266c2,0,3.6,1.6,3.6,3.6v11.6c0,2-1.6,3.6-3.6,3.6h-42.3V344.3z M223.7,373.7
	H300c2,0,3.6,1.6,3.6,3.6v11.6c0,2-1.6,3.6-3.6,3.6h-76.3V373.7z M263.6,447.8c0,2-1.6,3.6-3.6,3.6h-36.4v-18.8H260
	c2,0,3.6,1.6,3.6,3.6V447.8z M321.5,418.4c0,2-1.6,3.6-3.6,3.6h-94.2v-18.8h94.2c2,0,3.6,1.6,3.6,3.6V418.4z M392.6,449.5h-34.3V442
	l22.6-27h-21.7v-8.8h33.2v7.5l-21.5,27h21.7V449.5z M381,394.7l-3.7,6.4l-3.7-6.4h2.7v-14.6h2v14.6H381z M387,380l-3.4-9.7h-13.5
	l-3.3,9.7h-10.2l15.8-43.3h9l15.8,43.3H387z M371.8,363.4H382l-5.1-15.3L371.8,363.4z"/>
</svg>
